<svg width="16" height="1em" viewBox="0 0 256 256" xmlns="http://www.w3.org/2000/svg" class="larkui-icon larkui-icon-addressbook1 index-module_navIcon_4tRUG"><path d="M197.293 23C214.766 23 229 36.993 229 54.34v148.32c0 17.347-14.234 31.34-31.707 31.34H62.707C45.234 234 31 220.007 31 202.66v-16.718c0-5.523 4.477-10 10-10s10 4.477 10 10v16.717C51 208.884 56.204 214 62.707 214h134.586c6.503 0 11.707-5.116 11.707-11.34V54.34c0-6.224-5.204-11.34-11.707-11.34H62.707C56.204 43 51 48.116 51 54.34v16.718c0 5.523-4.477 10-10 10s-10-4.477-10-10V54.34C31 36.993 45.234 23 62.707 23h134.586ZM131 71c20.256 0 36.667 16.448 36.667 36.727 0 9.972-3.969 19.018-10.411 25.637C171.506 142.189 181 157.986 181 176c0 5.523-4.477 10-10 10s-10-4.477-10-10c0-16.624-13.437-30.09-30-30.09-16.563 0-30 13.466-30 30.09 0 5.523-4.477 10-10 10s-10-4.477-10-10c0-18.014 9.493-33.811 23.744-42.637a36.633 36.633 0 0 1-10.41-25.636C94.333 87.448 110.743 71 131 71Zm-79 65c5.523 0 10 4.477 10 10s-4.477 10-10 10H28c-5.523 0-10-4.477-10-10s4.477-10 10-10h24Zm79-45c-9.2 0-16.667 7.484-16.667 16.727 0 9.244 7.467 16.728 16.667 16.728 9.2 0 16.667-7.484 16.667-16.728C147.667 98.484 140.2 91 131 91Zm-79 9c5.523 0 10 4.477 10 10s-4.477 10-10 10H28c-5.523 0-10-4.477-10-10s4.477-10 10-10h24Z" fill="currentColor" fill-rule="nonzero"></path></svg>