<svg width="16" height="1em" viewBox="0 0 256 256" xmlns="http://www.w3.org/2000/svg" class="larkui-icon larkui-icon-setting index-module_navIcon_4tRUG"><path d="m107.862 18.747-.657.12-.338.066c-6.873 1.403-12.248 6.823-13.523 13.754L90.76 46.595l-.095.043a89.598 89.598 0 0 0-14.256 8.116l-.992.701-13.428-4.751c-6.647-2.33-14.024-.428-18.668 4.823l-.601.696c-8.465 9.957-15.019 21.135-19.518 33.263l-.39 1.068-.286.825a17.223 17.223 0 0 0 5.122 18.57l10.903 9.27-.084.904a90.683 90.683 0 0 0-.34 7.871l.006 1.135a90.53 90.53 0 0 0 .334 6.757l.083.884-10.868 9.24c-5.366 4.551-7.392 11.911-5.164 18.574l.333.959a110.206 110.206 0 0 0 19.838 34.185l.438.51.245.28c4.623 5.177 11.948 7.086 18.566 4.784l13.477-4.77.117.085a89.173 89.173 0 0 0 14.174 8.3l1.056.485 2.585 13.916c1.294 7.033 6.834 12.52 13.877 13.806l.592.109a111.934 111.934 0 0 0 39.578.008l.654-.12.355-.07c6.856-1.399 12.231-6.82 13.506-13.75l2.559-13.801.124-.055a89.147 89.147 0 0 0 15.264-8.782l.116-.086 13.29 4.707c6.649 2.33 14.026.427 18.67-4.823l.6-.696c8.466-9.957 15.02-21.135 19.519-33.263l.39-1.068.268-.77c2.272-6.626.238-13.996-5.104-18.58l-10.721-9.129.098-1.03c.231-2.632.348-5.273.348-7.908l-.007-1.13a90.43 90.43 0 0 0-.341-6.78l-.098-1.03 10.692-9.104c5.36-4.546 7.386-11.906 5.159-18.569l-.331-.953a109.95 109.95 0 0 0-19.84-34.191l-.439-.51-.245-.28c-4.622-5.177-11.948-7.086-18.565-4.784l-13.351 4.726-.137-.098a89.752 89.752 0 0 0-14.254-8.32l-1.105-.505-2.562-13.816c-1.294-7.036-6.834-12.524-13.877-13.809l-.593-.109c-13.008-2.338-26.61-2.338-39.574-.008Zm34.054 19.358.677.11 4.234 22.829 5.296 1.982a69.844 69.844 0 0 1 19.748 11.366l4.359 3.56 21.917-7.761.493.597a89.82 89.82 0 0 1 14.255 24.58l.239.634-17.649 15.029.913 5.57a70.76 70.76 0 0 1 .932 11.416c0 3.807-.314 7.64-.932 11.414l-.913 5.571 17.635 15.017-.223.593a90.385 90.385 0 0 1-14.29 24.623l-.462.561-21.928-7.764-4.361 3.577a69.308 69.308 0 0 1-19.733 11.353l-5.296 1.982-4.235 22.83-.9.145a92.146 92.146 0 0 1-14.066 1.08l-1.087-.006a92.191 92.191 0 0 1-13.001-1.08l-.88-.141-4.256-22.917-5.292-1.982c-7.057-2.643-13.646-6.453-19.583-11.314l-4.36-3.57-22.062 7.808-.453-.55a90.097 90.097 0 0 1-14.315-24.686l-.218-.574 17.843-15.172-.93-5.59a68.609 68.609 0 0 1-.905-11.231c0-3.815.303-7.595.907-11.24l.924-5.585L42.119 96l.238-.624a90.385 90.385 0 0 1 14.29-24.623l.461-.562 22.06 7.808 4.36-3.57a69.726 69.726 0 0 1 19.605-11.323l5.273-1.989 4.254-22.903.715-.115a92.841 92.841 0 0 1 28.542.006h-.001ZM128 90c-20.987 0-38 17.013-38 38s17.013 38 38 38 38-17.013 38-38-17.013-38-38-38Zm0 20c9.941 0 18 8.059 18 18s-8.059 18-18 18-18-8.059-18-18 8.059-18 18-18Z" fill="currentColor" fill-rule="nonzero"></path></svg>