<svg width="16" height="1em" viewBox="0 0 256 256" xmlns="http://www.w3.org/2000/svg" xmlns:xlink="http://www.w3.org/1999/xlink" class="larkui-icon larkui-icon-spece index-module_navIcon_4tRUG"><defs><path id="165239365a" d="M0 0h256v256H0z"></path></defs><g fill="none" fill-rule="evenodd"><mask id="165239365b" fill="#fff"><use xlink:href="#165239365a"></use></mask><path d="M109.434 19.682a42 42 0 0 1 38.739.102l72.492 37.92c6.901 3.61 10.486 11.068 9.499 18.365v98.077a26 26 0 0 1-13.456 22.774l-81.024 41.323a18 18 0 0 1-10.601 2.132 18 18 0 0 1-10.603-2.132L39.456 196.92A26 26 0 0 1 26 174.146V74.081a9.97 9.97 0 0 1 .766-3.845 18.024 18.024 0 0 1 1.492-4.56 18 18 0 0 1 7.957-8.183ZM46 94.2v79.946a6 6 0 0 0 3.105 5.256l72.059 39.689v-89.798a41.986 41.986 0 0 1-8.648-3.054L46 94.2Zm164.163.772-60.306 30.825a41.985 41.985 0 0 1-8.694 3.29v83.819l65.896-33.504a6 6 0 0 0 3.1-5.004l.005-.252-.001-79.174Zm-71.26-57.466a22 22 0 0 0-20.292-.053L48.954 73.424l72.24 34.796a22 22 0 0 0 19.16-.031l.4-.2 67.213-34.356Z" fill="currentColor" fill-rule="nonzero" mask="url(#165239365b)"></path></g></svg>