<svg width="1em" height="1em" viewBox="0 0 256 256" xmlns="http://www.w3.org/2000/svg" class="larkui-icon larkui-icon-edit-border icon-svg index-module_size_wVASz" data-name="EditBorder" style="width: 16px; min-width: 16px; height: 16px; color: rgb(140, 140, 140);"><path d="M165.426 35.669c10.228-10.225 26.795-10.225 37.012 0l16.94 16.946c9.525 9.512 10.25 24.659 1.46 35.416l-1.45 1.588-120.87 120.819a22.064 22.064 0 0 1-10.12 5.783l-43.65 11.323a14.183 14.183 0 0 1-13.594-3.697 14.175 14.175 0 0 1-3.698-13.59l11.315-43.65a22.3 22.3 0 0 1 5.785-10.119L165.426 35.67ZM153.174 76.73 58.96 170.91a1.8 1.8 0 0 0-.469.82l-8.683 33.457 33.475-8.67.437-.182.384-.287 94.192-94.18-25.144-25.138h.022Zm34.85-26.66a5.797 5.797 0 0 0-8.194 0l-12.54 12.536 25.144 25.138 12.188-12.164.757-.82a5.793 5.793 0 0 0-.405-7.744l-16.95-16.946Z" fill="currentColor" fill-rule="nonzero"></path></svg>