<svg width="1em" height="1em" viewBox="0 0 256 256" xmlns="http://www.w3.org/2000/svg" class="larkui-icon larkui-icon-icon-range icon-svg index-module_actionTitleIcon_XFMgq index-module_size_wVASz" data-name="IconRange" style="width: 16px; min-width: 16px; height: 16px;"><g fill="none" fill-rule="evenodd"><path d="M0 0h256v256H0z"></path><path d="M196.283 202.532c4.063 5.236 3.112 12.774-2.124 16.837a108.154 108.154 0 0 1-13.298 8.83C164.85 237.2 146.76 242 128 242c-18.76 0-36.85-4.8-52.861-13.801a108.154 108.154 0 0 1-13.298-8.83c-5.236-4.063-6.187-11.6-2.124-16.837 4.063-5.236 11.601-6.187 16.837-2.124a84.154 84.154 0 0 0 10.347 6.87C99.344 214.274 113.387 218 128 218c14.613 0 28.656-3.726 41.1-10.722a84.154 84.154 0 0 0 10.346-6.87c5.236-4.063 12.774-3.112 16.837 2.124ZM218 147c13.255 0 24 10.745 24 24s-10.745 24-24 24-24-10.745-24-24 10.745-24 24-24Zm-180 0c13.255 0 24 10.745 24 24s-10.745 24-24 24-24-10.745-24-24 10.745-24 24-24ZM93.317 43.652c3.08 5.751.997 12.888-4.641 16.094l-.271.15a83.97 83.97 0 0 0-7.067 4.244 84.47 84.47 0 0 0-12.735 10.463 84.19 84.19 0 0 0-17.353 25.2 83.275 83.275 0 0 0-6.766 25.117c-.707 6.59-6.622 11.358-13.212 10.65-6.59-.706-11.358-6.621-10.65-13.211a107.274 107.274 0 0 1 8.713-32.337 108.189 108.189 0 0 1 22.297-32.39c5-5 10.48-9.502 16.355-13.435a107.97 107.97 0 0 1 9.086-5.457c5.843-3.13 13.115-.93 16.244 4.912Zm85.61-4.912a107.97 107.97 0 0 1 9.086 5.457 108.47 108.47 0 0 1 16.355 13.435 108.189 108.189 0 0 1 22.298 32.39 107.275 107.275 0 0 1 8.713 32.337c.707 6.59-4.062 12.505-10.651 13.212-6.59.707-12.505-4.062-13.212-10.651-.32-2.981-.797-5.93-1.429-8.838a83.275 83.275 0 0 0-5.337-16.279 84.19 84.19 0 0 0-17.353-25.2A84.47 84.47 0 0 0 168.63 60.46l-1.035-.564c-5.842-3.129-8.041-10.402-4.912-16.244 3.129-5.842 10.401-8.042 16.244-4.912ZM128 14c13.255 0 24 10.745 24 24s-10.745 24-24 24-24-10.745-24-24 10.745-24 24-24Z" fill="currentColor" fill-rule="nonzero"></path></g></svg>