<svg width="1em" height="1em" viewBox="0 0 256 256" xmlns="http://www.w3.org/2000/svg" class="larkui-icon larkui-icon-icon-key-2 icon-svg index-module_actionTitleIcon_XFMgq index-module_size_wVASz" data-name="IconKey2" style="width: 16px; min-width: 16px; height: 16px;"><g fill="none" fill-rule="evenodd"><path d="M0 0h256v256H0z"></path><path d="M154.608 10.798c50.81 0 92 41.19 92 92s-41.19 92-92 92c-23.35 0-44.67-8.699-60.892-23.033L68.72 196.75l27.955 27.966c4.686 4.687 4.686 12.285 0 16.971-4.296 4.296-11.039 4.654-15.742 1.074l-1.229-1.074-27.96-27.96-21.867 21.879c-4.686 4.686-12.284 4.686-16.97 0-4.296-4.296-4.654-11.038-1.074-15.742l1.074-1.229 65.014-64.994c-9.676-14.566-15.313-32.046-15.313-50.843 0-50.81 41.19-92 92-92Zm0 24c-37.555 0-68 30.445-68 68 0 37.556 30.445 68 68 68s68-30.444 68-68c0-37.555-30.445-68-68-68Z" fill="currentColor" fill-rule="nonzero"></path></g></svg>