<svg width="1em" height="1em" viewBox="0 0 256 256" xmlns="http://www.w3.org/2000/svg" class="larkui-icon larkui-icon-help-search icon-svg index-module_actionTitleIcon_XFMgq index-module_size_wVASz" data-name="HelpSearch" style="width: 16px; min-width: 16px; height: 16px;"><path d="M114 20c51.362 0 93 41.638 93 93 0 21.782-7.489 41.816-20.032 57.666l45.82 46.277c4.275 4.317 4.24 11.282-.077 15.556-4.317 4.275-11.281 4.24-15.556-.077l-45.774-46.23C155.576 198.602 135.652 206 114 206c-51.362 0-93-41.638-93-93s41.638-93 93-93Zm0 20c-40.317 0-73 32.683-73 73s32.683 73 73 73 73-32.683 73-73-32.683-73-73-73Z" fill="currentColor" fill-rule="nonzero"></path></svg>