<svg width="1em" height="1em" viewBox="0 0 256 256" xmlns="http://www.w3.org/2000/svg" xmlns:xlink="http://www.w3.org/1999/xlink" class="larkui-icon larkui-icon-icon-cancellink icon-svg index-module_actionTitleIcon_XFMgq index-module_actionTitleIconLast_2BO7h index-module_size_wVASz" data-name="IconCancellink" style="width: 16px; min-width: 16px; height: 16px;"><defs><path id="553567528a" d="M0 0h256v256H0z"></path></defs><g fill="none" fill-rule="evenodd"><mask id="553567528b" fill="#fff"><use xlink:href="#553567528a"></use></mask><path d="M180 140.913c5.43 0 9.848 4.326 9.996 9.72l.004.28v43.534C190 228.46 162.222 256 128 256c-33.88 0-61.444-26.991-61.992-60.535L66 194.447v-43.534c0-5.523 4.477-10 10-10 5.43 0 9.848 4.326 9.996 9.72l.004.28v43.534C86 217.377 104.785 236 128 236c22.983 0 41.624-18.253 41.994-40.867l.006-.686v-43.534c0-5.523 4.477-10 10-10ZM137.999 144l.001 38.354c0 5.522-4.477 10-10 10-5.43 0-9.848-4.327-9.996-9.72l-.004-.28-.001-38.354h20ZM128 64.354c5.43 0 9.848 4.326 9.996 9.72l.004.28-.001 49.646h-20L118 74.354c0-5.523 4.477-10 10-10ZM128 0c33.88 0 61.444 26.991 61.992 60.535l.008 1.018v43.534c0 5.523-4.477 10-10 10-5.43 0-9.848-4.326-9.996-9.72l-.004-.28V61.553C170 38.623 151.215 20 128 20c-22.983 0-41.624 18.253-41.994 40.867l-.006.686v43.534c0 5.523-4.477 10-10 10-5.43 0-9.848-4.326-9.996-9.72l-.004-.28V61.553C66 27.54 93.778 0 128 0Z" fill="#df2a3f" fill-rule="nonzero" mask="url(#553567528b)" transform="rotate(45 128 128)"></path><path d="M56.425 42.232c3.824-3.845 9.997-3.93 13.926-.246l.216.208L215.052 185.91c3.916 3.895 3.933 10.227.038 14.142-3.824 3.845-9.997 3.93-13.926.246l-.216-.208L56.463 56.374c-3.916-3.895-3.933-10.226-.038-14.142Z" fill="#df2a3f" fill-rule="nonzero"></path></g></svg>