<svg width="40" height="40" viewBox="0 0 20 20" xmlns="http://www.w3.org/2000/svg" xmlns:xlink="http://www.w3.org/1999/xlink" class="larkui-icon larkui-icon-icon-lock styles-module_itemIcon_x0RNY styles-module_publicIcon_zEz8l"><defs><path id="2932495269a" d="M0 0h20v20H0z"></path></defs><g fill="none" fill-rule="evenodd"><mask id="2932495269b" fill="#fff"><use xlink:href="#2932495269a"></use></mask><g mask="url(#2932495269b)" fill="#FFF" fill-rule="nonzero"><path d="M10 1.172a4.219 4.219 0 0 1 4.219 4.219l-.001 1.874h1.407c1.036 0 1.875.84 1.875 1.876v7.812c0 1.036-.84 1.875-1.875 1.875H4.375A1.875 1.875 0 0 1 2.5 16.953V9.141c0-1.036.84-1.875 1.875-1.875l1.406-.001V5.39A4.219 4.219 0 0 1 10 1.17Zm5.64 7.657H4.376a.313.313 0 0 0-.312.296v7.828c0 .167.131.304.296.312h11.266a.313.313 0 0 0 .312-.296V9.14a.313.313 0 0 0-.296-.312ZM10 10.78a1.406 1.406 0 0 1 .782 2.575v1.175a.781.781 0 1 1-1.563 0l-.001-1.175A1.405 1.405 0 0 1 10 10.781Zm.044-8.046H10a2.656 2.656 0 0 0-2.656 2.612v1.919h5.312V5.39a2.656 2.656 0 0 0-2.612-2.656Z"></path></g></g></svg>