<svg width="1em" height="1em" viewBox="0 0 18 18" xmlns="http://www.w3.org/2000/svg" class="larkui-icon larkui-icon-icon-collaboratorlist icon-svg styles-module_inviteIcon_+3x-U index-module_size_wVASz" data-name="IconCollaboratorlist" style="width: 30px; min-width: 30px; height: 30px;"><g fill="none" fill-rule="evenodd"><path d="M0 0h18v18H0z"></path><path d="M9 1.835a4.205 4.205 0 1 1 0 8.41 5.083 5.083 0 0 0-5.084 5.083.705.705 0 1 1-1.41 0 6.494 6.494 0 0 1 3.92-5.963A4.205 4.205 0 0 1 9 1.835Zm5.822 12.759a.703.703 0 0 1 0 1.406h-4.594a.703.703 0 0 1 0-1.406h4.594Zm0-3a.703.703 0 0 1 0 1.406h-4.594a.703.703 0 0 1 0-1.406h4.594ZM9 3.245a2.795 2.795 0 1 0 0 5.59 2.795 2.795 0 0 0 0-5.59Z" fill="currentColor" fill-rule="nonzero"></path></g></svg>