<svg width="1em" height="1em" viewBox="0 0 256 256" xmlns="http://www.w3.org/2000/svg" xmlns:xlink="http://www.w3.org/1999/xlink" class="larkui-icon larkui-icon-doc-management icon-svg Nav-module_menuIcon_i4znC index-module_size_wVASz" data-name="DocManagement" style="width: 16px; min-width: 16px; height: 16px;"><defs><path id="3005685790a" d="M0 0h256v256H0z"></path></defs><g fill="none" fill-rule="evenodd"><mask id="3005685790b" fill="#fff"><use xlink:href="#3005685790a"></use></mask><path d="m203.563 123.628.437.248 29.57 17.071a30 30 0 0 1 14.996 25.509l.003.472v34.144a30 30 0 0 1-14.593 25.741l-.407.24L204 244.124a30 30 0 0 1-29.563.248l-.437-.248-29.57-17.071a30 30 0 0 1-14.996-25.509l-.003-.472v-34.144a30 30 0 0 1 14.593-25.741l.407-.24L174 123.876a30 30 0 0 1 29.563-.248Zm-20.243 15.658-.32.178-29.57 17.072a12 12 0 0 0-5.995 10.063l-.004.33v34.143a12 12 0 0 0 5.717 10.224l.283.168L183 228.536a12 12 0 0 0 11.68.178l.32-.178 29.57-17.072a12 12 0 0 0 5.995-10.063l.004-.33v-34.143a12 12 0 0 0-5.717-10.224l-.283-.168L195 139.464a12 12 0 0 0-11.68-.178ZM188 26c22.964 0 41.623 18.43 41.994 41.305L230 68v36c0 5.523-4.477 10-10 10-5.43 0-9.848-4.327-9.996-9.72L210 104V68c0-12.029-9.654-21.803-21.636-21.997L188 46H68c-12.029 0-21.803 9.654-21.997 21.636L46 68v120c0 12.029 9.654 21.803 21.636 21.997L68 210h37c5.523 0 10 4.477 10 10 0 5.43-4.327 9.848-9.72 9.996L105 230H68c-22.964 0-41.623-18.43-41.994-41.305L26 188V68c0-22.964 18.43-41.623 41.305-41.994L68 26h120Zm1 134c13.255 0 24 10.745 24 24s-10.745 24-24 24-24-10.745-24-24 10.745-24 24-24Zm0 16a8 8 0 1 0 0 16 8 8 0 0 0 0-16Zm-73-50c5.523 0 10 4.477 10 10s-4.477 10-10 10H80c-5.523 0-10-4.477-10-10s4.477-10 10-10h36Zm56-48c5.523 0 10 4.477 10 10s-4.477 10-10 10H80c-5.523 0-10-4.477-10-10s4.477-10 10-10h92Z" fill="currentColor" fill-rule="nonzero" mask="url(#3005685790b)"></path></g></svg>