<svg width="1em" height="1em" viewBox="0 0 16 16" xmlns="http://www.w3.org/2000/svg" class="larkui-icon larkui-icon-icon-paddy icon-svg Nav-module_menuIcon_i4znC index-module_size_wVASz" data-name="IconPaddy" style="width: 16px; min-width: 16px; height: 16px;"><path d="M8.01.735c.329 0 .595.266.595.594l-.001.678.052.044c2.346 2.006 3.682 4.034 3.97 6.087l.29-.103.31-.104c.34-.11.698.1.767.45.949 4.82-1.152 7.247-6.008 6.93h.013l-.248.014c-4.67.214-6.678-2.211-5.747-6.944a.594.594 0 0 1 .767-.45c.191.062.378.126.56.193.296-2.083 1.672-4.14 4.087-6.174v-.621c0-.328.266-.594.594-.594ZM3.055 9.287l-.006.042c-.454 3.313.869 4.842 4.167 4.823l.186-.003-.003-.15c-.077-1.91-1.268-3.377-3.656-4.432a.562.562 0 0 1-.225-.095 7.432 7.432 0 0 0-.208-.086l-.255-.099Zm9.888 0-.255.1C10.01 10.45 8.68 11.976 8.598 14l-.003.149.186.003c3.299.019 4.622-1.51 4.168-4.823l-.007-.042Zm-8.466-.76-.004.07c1.693.797 2.876 1.825 3.526 3.078.646-1.243 1.814-2.264 3.485-3.058-.124-1.626-1.073-3.298-2.877-5.013l-.001 2.12a.594.594 0 0 1-1.188 0L7.416 3.54C5.6 5.245 4.63 6.909 4.476 8.528Z" fill="currentColor" fill-rule="nonzero"></path></svg>