<svg width="1em" height="1em" viewBox="0 0 16 16" xmlns="http://www.w3.org/2000/svg" xmlns:xlink="http://www.w3.org/1999/xlink" class="larkui-icon larkui-icon-icon-securitylog icon-svg Nav-module_menuIcon_i4znC index-module_size_wVASz" data-name="IconSecuritylog" style="width: 16px; min-width: 16px; height: 16px;"><defs><path id="3861885276a" d="M0 0h16v16H0z"></path></defs><g fill="none" fill-rule="evenodd"><mask id="3861885276b" fill="#fff"><use xlink:href="#3861885276a"></use></mask><path d="M11.75 1.625a2.625 2.625 0 0 1 2.625 2.582V6.5a.625.625 0 0 1-1.25.017V4.25c0-.752-.603-1.363-1.352-1.375H4.25c-.752 0-1.363.603-1.375 1.352v7.523c0 .752.603 1.363 1.352 1.375H6.563a.625.625 0 0 1 .017 1.25H4.25a2.625 2.625 0 0 1-2.625-2.582V4.25a2.625 2.625 0 0 1 2.582-2.625h7.543Zm-4.5 6.25a.625.625 0 1 1 0 1.25H5a.625.625 0 1 1 0-1.25h2.25Zm3.5-3a.625.625 0 1 1 0 1.25H5a.625.625 0 1 1 0-1.25h5.75Z" fill="currentColor" fill-rule="nonzero" mask="url(#3861885276b)"></path><path d="m11.404 7.943-.01.016c-.229.377-.884.608-2.019.608a.563.563 0 0 0-.563.562v2.623c0 1.36.997 2.405 2.855 3.146a.563.563 0 0 0 .416 0c1.858-.74 2.854-1.786 2.854-3.146V9.13a.562.562 0 0 0-.562-.562c-1.078 0-1.738-.228-2.029-.625l-.01-.015a.563.563 0 0 0-.932.016Zm.47 1.13.016-.012.008.006c.465.343 1.098.54 1.888.602l.027.002v2.105c-.013.752-.607 1.41-1.892 1.97l-.046.02-.007-.003c-1.326-.57-1.93-1.242-1.93-2.01v-2.08l.034-.002c.812-.061 1.45-.254 1.902-.597Z" fill="currentColor" fill-rule="nonzero" mask="url(#3861885276b)"></path></g></svg>