<svg width="1em" height="1em" viewBox="0 0 16 16" xmlns="http://www.w3.org/2000/svg" class="larkui-icon larkui-icon-icon-introductioncheck setting-check-form-icon"><g stroke-width="IconIntroductioncheck-1" fill="none" fill-rule="evenodd"><path d="M0 0h16v16H0z"></path><path d="M3.111 7.899c.474-.532.944-.624 1.412-.279.613.453 1.493 1.667 2.64 3.64C9.61 6.726 10.97 4.276 11.241 3.91c.215-.292.701-.428 1.458-.407a.4.4 0 0 1 .34.59c-2.612 4.867-4.13 7.586-4.556 8.16-.66.892-2.143 1.049-2.802.617-.408-.266-1.3-1.529-2.677-3.787h-.001a1 1 0 0 1 .107-1.184Z" fill="#00b96b"></path></g></svg>