<svg width="1em" height="1em" viewBox="0 0 256 256" xmlns="http://www.w3.org/2000/svg" class="larkui-icon larkui-icon-line-data icon-svg Nav-module_menuIcon_i4znC index-module_size_wVASz" data-name="LineData" style="width: 16px; min-width: 16px; height: 16px;"><g fill="currentColor" fill-rule="nonzero"><path d="M185.453 92.73c4.29-3.902 10.925-3.583 14.821.713 3.896 4.297 3.578 10.944-.712 14.846l-42.004 38.218a10.479 10.479 0 0 1-13.588.444l-23.372-18.636-32.94 30.852c-4.156 3.892-10.632 3.748-14.611-.272l-.219-.227c-3.957-4.24-3.734-10.89.498-14.854l39.555-37.047a10.479 10.479 0 0 1 13.7-.546l23.474 18.716 35.398-32.207Z"></path><path d="M38 29c5.43 0 9.848 4.327 9.996 9.72L48 39v155c0 7.627 6.1 13.83 13.687 13.997L62 208h156c5.523 0 10 4.477 10 10 0 5.43-4.327 9.848-9.72 9.996L218 228H62c-18.59 0-33.695-14.92-33.995-33.438L28 194V39c0-5.523 4.477-10 10-10ZM196.719 80.985c6.2-.65 11.755 3.848 12.41 10.05l2.704 25.723a7.529 7.529 0 0 1-14.974 1.574l-2.312-21.98-21.999 2.311a7.529 7.529 0 0 1-8.239-6.42l-.035-.28a7.529 7.529 0 0 1 6.701-8.275l25.744-2.703Z"></path></g></svg>