<svg width="1em" height="1em" viewBox="0 0 256 257" xmlns="http://www.w3.org/2000/svg" class="larkui-icon larkui-icon-assignee icon-svg Nav-module_menuIcon_i4znC index-module_size_wVASz" data-name="Assignee" style="width: 16px; min-width: 16px; height: 16px;"><path d="M128.017 129c27.925.016 52.78 7.159 71.454 19.489 17.435 11.512 28.304 26.962 28.522 41.675l.007 1.548c0 4.346-.335 7.598-1.626 11.45l-.182.53-.173.475c-1.768 4.74-4.76 8.817-9.107 11.828l-.439.298-.13.084-.338.238c-1.953 1.354-4.223 2.54-6.822 3.579l-.656.256-.832.31c-.632.227-1.282.448-1.95.66l-.673.211-.918.273-.466.133-.472.131-.96.256-.488.124-.494.123-1.004.238c-.45.104-.908.206-1.372.305l-.7.148-1.07.214-.542.104-.549.102-1.113.2-1.136.19-1.158.184-1.18.176-1.203.17-1.225.161-1.248.155-1.271.148-1.294.142-1.316.134-1.34.129-1.362.122-1.386.115-2.121.163-1.444.1-1.467.095-2.245.132-1.526.081-1.55.076-1.573.07-1.598.066-1.621.06-2.477.082-2.515.072-2.477.06-1.805.035-2.295.037-3.85.043-3.11.02-6.433.014L128.1 227l-.137-.002-.136.002-11.598.014-6.434-.014-3.11-.02-3.85-.043-2.294-.037-1.806-.036-2.476-.06-2.515-.07-2.478-.082-1.62-.061-1.598-.065-1.574-.071-1.55-.076-1.526-.08-2.244-.133-1.467-.095-1.444-.1-2.122-.163-1.386-.115-1.362-.122-1.34-.129-1.316-.134-1.293-.142-1.271-.148-1.248-.155-1.226-.162-1.202-.169-1.18-.176-1.159-.184-1.135-.19-1.114-.2c-.367-.067-.731-.136-1.091-.206l-1.07-.214a89.329 89.329 0 0 1-2.072-.453l-1.004-.238c-.33-.081-.658-.164-.981-.247l-.96-.256c-.317-.086-.63-.175-.94-.264l-.916-.273a55.46 55.46 0 0 1-2.623-.872l-.832-.309c-2.875-1.098-5.363-2.368-7.478-3.835l-.338-.238-.13-.084c-4.586-3.038-7.72-7.229-9.547-12.126l-.172-.476c-1.443-4.088-1.809-7.435-1.809-11.98l.004-1.096c0-14.848 10.912-30.497 28.525-42.126 18.462-12.19 42.965-19.31 70.503-19.486l1.06-.003Zm-.054 19.999-.866.004c-23.747.149-44.463 6.166-59.622 16.176-12.362 8.162-19.354 18.06-19.54 25.146l-.008.911v.397l.005.747c.034 2.031.212 3.378.664 4.658.4 1.136.947 1.914 1.804 2.514l.203.135.294.186.28.207c.604.443 1.371.869 2.296 1.275l.475.201.501.198.527.195.274.096.565.19.743.233.781.227.654.178.678.175.703.171.726.168.751.164.775.16 1.207.235 1.26.226.869.147.891.142.915.14.937.134 1.447.196.993.126 1.015.122 1.563.176 1.61.167 1.101.107 1.69.153 1.153.096 1.173.093 1.798.132 1.842.122 1.888.113 1.93.104 1.312.064 1.33.06 2.031.082 2.073.073 1.886.057 2.338.061 3.948.08 1.803.027 3.794.04 3.624.02 5.876.008 11.08-.015 11 .015 5.877-.009 3.623-.02 3.794-.039 1.803-.027 3.948-.08 2.338-.061 1.887-.057 2.072-.073 2.03-.082 1.331-.06 1.312-.064 1.93-.104 1.888-.113 1.843-.122 1.797-.132 1.174-.093 1.152-.096 1.69-.153 1.1-.107 1.612-.167 1.562-.176 1.015-.122.993-.126 1.447-.196.938-.135.914-.139.892-.142.868-.147 1.26-.226 1.207-.234.775-.161.75-.164.728-.168.702-.171.678-.175.654-.178.933-.273.591-.187.703-.238.663-.243.501-.198.476-.201c.809-.356 1.497-.726 2.061-1.11l.234-.165.28-.207.294-.186.204-.135c.856-.6 1.403-1.378 1.804-2.514.421-1.194.605-2.447.654-4.261l.009-.397.006-.747-.008-1.308c-.187-7.086-7.178-16.984-19.54-25.146-15.16-10.01-35.876-16.027-59.622-16.176l-.867-.004ZM128 24c25.405 0 46 20.595 46 46s-20.595 46-46 46-46-20.595-46-46 20.595-46 46-46Zm0 20c-14.36 0-26 11.64-26 26s11.64 26 26 26 26-11.64 26-26-11.64-26-26-26Z" fill="currentColor" fill-rule="nonzero"></path></svg>