<svg width="16" height="16" viewBox="0 0 256 256" xmlns="http://www.w3.org/2000/svg" class="larkui-icon larkui-icon-time icon-active"><defs><clipPath id="2087421936a"><path d="M112 0c61.856 0 112 50.144 112 112s-50.144 112-112 112S0 173.856 0 112 50.144 0 112 0Zm-7 47.5c-5.523 0-10 4.478-10 10v53.568l.004.482a30 30 0 0 0 9.973 21.858l32.226 28.883.227.197c4.115 3.476 10.275 3.069 13.894-.97 3.686-4.112 3.34-10.434-.772-14.12l-32.226-28.883-.24-.223a10 10 0 0 1-3.086-7.224V57.501l-.004-.28c-.148-5.394-4.567-9.72-9.996-9.72Z"></path></clipPath></defs><g clip-path="url(#2087421936a)" transform="translate(16 16)"><path fill="currentColor" d="M0 0h224v224H0V0z"></path></g></svg>