<svg width="1em" height="1em" viewBox="0 0 256 256" xmlns="http://www.w3.org/2000/svg" class="larkui-icon larkui-icon-down-miniarrow icon-svg index-module_upArrow_eoqSB index-module_size_wVASz" data-name="DownMiniarrow" style="width: 14px; min-width: 14px; height: 14px;"><path d="M129 31.354c5.43 0 9.848 4.326 9.996 9.72l.004.28V181h22.929c3.905 0 7.071 3.161 7.071 7.06a7.055 7.055 0 0 1-2.071 4.993L134 225.933a7.079 7.079 0 0 1-10 0l-32.929-32.88a7.053 7.053 0 0 1 0-9.985 7.076 7.076 0 0 1 5-2.068H119V41.354c0-5.523 4.477-10 10-10Z" fill="#bec0bf" fill-rule="nonzero"></path></svg>