<svg width="1em" height="1em" viewBox="0 0 256 256" xmlns="http://www.w3.org/2000/svg" class="larkui-icon larkui-icon-card-style icon-svg index-module_size_wVASz" data-name="CardStyle" style="width: 16px; min-width: 16px; height: 16px;"><path d="M198 24h-28c-16.569 0-30 13.431-30 30v28c0 16.569 13.431 30 30 30h28c16.569 0 30-13.431 30-30V54c0-16.569-13.431-30-30-30Zm-28 20h28c5.523 0 10 4.477 10 10v28c0 5.523-4.477 10-10 10h-28c-5.523 0-10-4.477-10-10V54c0-5.523 4.477-10 10-10Zm28 92h-28c-16.569 0-30 13.431-30 30v28c0 16.569 13.431 30 30 30h28c16.569 0 30-13.431 30-30v-28c0-16.569-13.431-30-30-30Zm-28 20h28c5.523 0 10 4.477 10 10v28c0 5.523-4.477 10-10 10h-28c-5.523 0-10-4.477-10-10v-28c0-5.523 4.477-10 10-10ZM86 24H58c-16.569 0-30 13.431-30 30v28c0 16.569 13.431 30 30 30h28c16.569 0 30-13.431 30-30V54c0-16.569-13.431-30-30-30ZM58 44h28c5.523 0 10 4.477 10 10v28c0 5.523-4.477 10-10 10H58c-5.523 0-10-4.477-10-10V54c0-5.523 4.477-10 10-10Zm28 92H58c-16.569 0-30 13.431-30 30v28c0 16.569 13.431 30 30 30h28c16.569 0 30-13.431 30-30v-28c0-16.569-13.431-30-30-30Zm-28 20h28c5.523 0 10 4.477 10 10v28c0 5.523-4.477 10-10 10H58c-5.523 0-10-4.477-10-10v-28c0-5.523 4.477-10 10-10Z" fill="currentColor" fill-rule="nonzero"></path></svg>