<svg width="1em" height="1em" viewBox="0 0 256 256" xmlns="http://www.w3.org/2000/svg" class="larkui-icon larkui-icon-department icon-svg index-module_size_wVASz" data-name="Department" style="width: 16px; min-width: 16px; height: 16px;"><g transform="translate(16 28)" fill="currentColor" fill-rule="evenodd"><path d="M122 0h-20C85.431 0 72 13.431 72 30v14c0 16.569 13.431 30 30 30h20c16.569 0 30-13.431 30-30V30c0-16.569-13.431-30-30-30Zm0 20c5.523 0 10 4.477 10 10v14c0 5.523-4.477 10-10 10h-20c-5.523 0-10-4.477-10-10V30c0-5.523 4.477-10 10-10h20ZM50 126H30c-16.569 0-30 13.431-30 30v14c0 16.569 13.431 30 30 30h20c16.569 0 30-13.431 30-30v-14c0-16.569-13.431-30-30-30Zm0 20c5.523 0 10 4.477 10 10v14c0 5.523-4.477 10-10 10H30c-5.523 0-10-4.477-10-10v-14c0-5.523 4.477-10 10-10h20ZM194 126h-20c-16.569 0-30 13.431-30 30v14c0 16.569 13.431 30 30 30h20c16.569 0 30-13.431 30-30v-14c0-16.569-13.431-30-30-30Zm0 20c5.523 0 10 4.477 10 10v14c0 5.523-4.477 10-10 10h-20c-5.523 0-10-4.477-10-10v-14c0-5.523 4.477-10 10-10h20Z" fill-rule="nonzero"></path><path d="M164 86.14c16.569 0 30 13.432 30 30V136h-20v-19.86c0-5.523-4.477-10-10-10H60c-5.523 0-10 4.477-10 10V136H30v-19.86c0-16.568 13.431-30 30-30h104Z" fill-rule="nonzero"></path><rect x="102" y="60" width="20" height="36" rx="1"></rect></g></svg>