<svg width="1em" height="1em" viewBox="0 0 256 256" xmlns="http://www.w3.org/2000/svg" class="larkui-icon larkui-icon-enter icon-svg index-module_size_wVASz" data-name="Enter" style="width: 14px; min-width: 14px; height: 14px;"><path d="M205.354 40.354c5.429 0 9.847 4.326 9.996 9.72l.004.28v90.25c0 16.402-13.165 29.73-29.504 29.996l-.496.004H75.499l.001 22.825c0 3.905-3.161 7.071-7.06 7.071a7.055 7.055 0 0 1-4.993-2.071L30.567 165.5a7.079 7.079 0 0 1 0-10l32.88-32.929a7.053 7.053 0 0 1 9.985 0 7.076 7.076 0 0 1 2.068 5v23.033h109.854c5.429 0 9.847-4.327 9.996-9.72l.004-.28v-90.25c0-5.523 4.477-10 10-10Z" fill="#bec0bf" fill-rule="nonzero"></path></svg>