<svg width="1em" height="1em" viewBox="0 0 256 256" xmlns="http://www.w3.org/2000/svg" class="larkui-icon larkui-icon-catalog-expand CatalogTreeCollapseTrigger-module_icon_k49Ct"><path d="M74.382 40.5H24.618a8.333 8.333 0 0 0-5.892 14.226l24.881 24.881a8.333 8.333 0 0 0 11.786 0l24.881-24.881A8.333 8.333 0 0 0 74.382 40.5Zm0 134H24.618a8.333 8.333 0 0 0-5.892 14.226l24.881 24.881a8.333 8.333 0 0 0 11.786 0l24.881-24.881a8.333 8.333 0 0 0-5.892-14.226ZM125 41h105c5.523 0 10 4.477 10 10s-4.477 10-10 10H125c-5.523 0-10-4.477-10-10s4.477-10 10-10Zm0 77h105c5.523 0 10 4.477 10 10s-4.477 10-10 10H125c-5.523 0-10-4.477-10-10s4.477-10 10-10Zm0 78h105c5.523 0 10 4.477 10 10s-4.477 10-10 10H125c-5.523 0-10-4.477-10-10s4.477-10 10-10Z" fill="#8a8f8d" fill-rule="evenodd"></path></svg>