<svg t="1702546754078" class="icon" viewBox="0 0 1024 1024" version="1.1" xmlns="http://www.w3.org/2000/svg" p-id="28175" width="200" height="200"><path d="M327.68 680.96m-256 0a256 256 0 1 0 512 0 256 256 0 1 0-512 0Z" fill="#f4ea2a" p-id="28176"></path><path d="M753.92 880.64H372.48c-122.88 0-222.72-96-222.72-213.76V275.2c0-117.76 99.84-213.76 222.72-213.76h327.68c40.96 0 80.64 15.36 110.08 42.24l29.44 26.88c29.44 26.88 62.72 57.6 94.72 88.32 28.16 28.16 43.52 65.28 43.52 103.68V665.6c-1.28 119.04-101.12 215.04-224 215.04z m-381.44-768c-94.72 0-171.52 72.96-171.52 162.56v391.68c0 89.6 76.8 162.56 171.52 162.56h381.44c94.72 0 171.52-72.96 172.8-162.56V323.84c0-25.6-10.24-49.92-28.16-67.84-30.72-30.72-62.72-58.88-93.44-88.32L776.96 140.8c-20.48-19.2-47.36-29.44-75.52-29.44H372.48z" p-id="28177" fill="#f4ea2a"></path><path d="M805.12 345.6c0 17.92-14.08 32-32 32h-166.4c-17.92 0-32-14.08-32-32s14.08-32 32-32h166.4c17.92 0 32 14.08 32 32z" p-id="28178" fill="#f4ea2a"></path></svg>