<svg width="16" height="16" viewBox="0 0 256 256" xmlns="http://www.w3.org/2000/svg" xmlns:xlink="http://www.w3.org/1999/xlink" class="larkui-icon larkui-icon-filter FilterBar-module_filterIcon_V8fKL"><defs><path id="2123906565a" d="M0 0h256v256H0z"></path></defs><g fill="none" fill-rule="evenodd"><mask id="2123906565b" fill="#fff"><use xlink:href="#2123906565a"></use></mask><path d="M208.745 26H47.055a18 18 0 0 0-8.172 1.962c-8.858 4.513-12.38 15.352-7.866 24.21L87.487 163h78.933l58.252-110.613A18 18 0 0 0 226.745 44c0-9.941-8.058-18-18-18Zm-3.314 20-51.083 97H99.743L50.318 46h155.113Z" fill="currentColor" fill-rule="nonzero" mask="url(#2123906565b)"></path><path d="M172 143H84v51.302a11 11 0 0 0 7.204 10.325l66 24.264a11 11 0 0 0 3.796.676c6.075 0 11-4.925 11-11V143Zm-20 20v42.669l-48-17.648V163h48Z" fill="currentColor" fill-rule="nonzero" mask="url(#2123906565b)"></path></g></svg>