<svg width="1em" height="1em" viewBox="0 0 256 256" xmlns="http://www.w3.org/2000/svg" class="larkui-icon larkui-icon-catalog-fold CatalogTreeCollapseTrigger-module_icon_k49Ct"><path d="M26 41h204c5.523 0 10 4.477 10 10s-4.477 10-10 10H26c-5.523 0-10-4.477-10-10s4.477-10 10-10Zm0 155h204c5.523 0 10 4.477 10 10s-4.477 10-10 10H26c-5.523 0-10-4.477-10-10s4.477-10 10-10Zm93-78h111c5.523 0 10 4.477 10 10s-4.477 10-10 10H119c-5.523 0-10-4.477-10-10s4.477-10 10-10ZM16.4 103.318v49.764a8.333 8.333 0 0 0 14.226 5.892l24.881-24.881a8.333 8.333 0 0 0 0-11.786L30.626 97.426a8.333 8.333 0 0 0-14.226 5.892Z" fill="#8a8f8d" fill-rule="evenodd"></path></svg>