<svg width="20" height="20" viewBox="0 0 20 20" xmlns="http://www.w3.org/2000/svg" class="larkui-icon larkui-icon-home"><path d="M12.734 14.844H7.266a.703.703 0 1 0 0 1.406h5.468a.703.703 0 1 0 0-1.406Zm0-2.813H7.266a.703.703 0 1 0 0 1.406h5.468a.703.703 0 1 0 0-1.406Zm5.698-4.433-8.02-5.616A.698.698 0 0 0 10 1.855a.698.698 0 0 0-.412.127l-8.02 5.616a.702.702 0 1 0 .807 1.15l.125-.086v8.799a.703.703 0 1 0 1.406 0V7.678L10 3.41l6.094 4.268v9.783a.703.703 0 1 0 1.406 0V8.662l.125.088a.704.704 0 0 0 .807-1.152Zm-5.698 1.62H7.266a.703.703 0 1 0 0 1.407h5.468a.703.703 0 1 0 0-1.406Z" fill="currentColor" fill-rule="nonzero"></path></svg>