<svg width="1em" height="1em" viewBox="0 0 256 256" xmlns="http://www.w3.org/2000/svg" class="larkui-icon larkui-icon-knowledge-base-home ReaderLayout-module_navIcon_eoaa4"><path d="m139.26 31.243.36.232 76.656 50.543a21.11 21.11 0 0 1 9.486 17.222l.004.401v96.129c0 17.616-14.138 31.93-31.687 32.215l-.532.004h-34.698c-.1 0-.198-.001-.297-.004-.183.01-.367.015-.552.015-5.43 0-9.848-4.327-9.996-9.72L148 218v-47.755c0-11.2-8.973-20.245-20-20.245-10.913 0-19.813 8.858-19.997 19.896l-.003.349V218c0 5.523-4.477 10-10 10-.185 0-.37-.005-.552-.015h-.017l-.28.004H62.453c-17.616 0-31.93-14.138-32.215-31.686l-.004-.533V99.64a21.11 21.11 0 0 1 9.157-17.4l.333-.223 76.656-50.543a21.11 21.11 0 0 1 22.88-.232ZM127.516 48.1l-.127.072-76.656 50.543a1.11 1.11 0 0 0-.49.788l-.009.138v96.129c0 6.646 5.306 12.053 11.913 12.215l.306.004H88L88 170.245C88 148.036 105.89 130 128 130c21.889 0 39.642 17.677 39.995 39.58l.005.665v37.744h25.547c6.646 0 12.053-5.306 12.215-11.913l.004-.306V99.64a1.11 1.11 0 0 0-.388-.842l-.11-.084-76.657-50.543a1.11 1.11 0 0 0-1.095-.072Z" fill="currentColor" fill-rule="nonzero"></path></svg>