<svg width="1em" height="1em" viewBox="0 0 20 20" xmlns="http://www.w3.org/2000/svg" class="larkui-icon larkui-icon-doc-type-link icon-svg DocActionMenu-module_iconContainer_QaDi2 index-module_size_wVASz" data-name="DocTypeLink" style="width: 20px; min-width: 20px; height: 20px;"><g fill="none" fill-rule="evenodd"><path d="M4.75 1.267h10.5a2 2 0 0 1 2 2v13.5a2 2 0 0 1-2 2H4.75a2 2 0 0 1-2-2v-13.5a2 2 0 0 1 2-2Z" stroke="#3471AF" fill="#FFF"></path><g stroke="#3B8EE3" stroke-linecap="round"><path d="m9.059 7.576 1.408-1.408a2.37 2.37 0 0 1 3.35.014c.93.93.936 2.43.015 3.35l-1.408 1.41m-1.483 1.482-1.408 1.408a2.37 2.37 0 0 1-3.35-.014 2.37 2.37 0 0 1-.015-3.35l1.408-1.41M11.784 8.216l-3.54 3.469"></path></g></g></svg>