<svg t="1702545279917" class="icon" viewBox="0 0 1024 1024" version="1.1" xmlns="http://www.w3.org/2000/svg" p-id="11483" width="200" height="200"><path d="M530.659556 439.068444a38.513778 38.513778 0 0 1 48.014222-3.868444l4.778666 3.811556 8.704 9.272888 8.248889 10.126223a184.32 184.32 0 0 1 37.603556 108.657777 176.696889 176.696889 0 0 1-35.555556 109.909334l-7.509333 9.216-8.419556 9.102222-133.688888 133.859556-9.329778 8.704-9.784889 7.907555a173.511111 173.511111 0 0 1-80.213333 32.995556l-12.686223 1.251555-11.946666 0.341334-12.743111-0.455112-12.060445-1.251555a185.514667 185.514667 0 0 1-106.268444-52.906667 182.158222 182.158222 0 0 1-18.375111-238.136889l7.054222-8.817777 7.850666-8.704 85.788445-90.567112 4.664889-4.152888 4.949333-3.242667a38.115556 38.115556 0 0 1 17.180445-4.551111 38.4 38.4 0 0 1 35.384888 55.239111l-3.299555 5.461333-3.868445 4.664889-86.243555 91.022222-6.428445 7.566223-5.404444 7.623111a106.496 106.496 0 0 0 146.033778 147.797333l7.623111-5.176889 7.68-6.371555 134.314667-134.712889 6.712888-7.395556 5.916445-8.192c10.922667-16.782222 16.611556-36.465778 16.099555-56.661333a108.259556 108.259556 0 0 0-32.085333-75.036445 38.4 38.4 0 0 1 1.308445-54.328889z m168.448-295.480888l12.913777 0.739555 12.8 1.479111a179.029333 179.029333 0 0 1 91.420445 43.235556l9.386666 8.988444 1.422223 1.820445 8.021333 8.533333c28.387556 31.971556 44.487111 73.784889 45.226667 117.76a176.469333 176.469333 0 0 1-35.555556 109.909333l-7.452444 9.272889-8.419556 8.988445-86.129778 83.114666-4.949333 3.982223-5.233778 3.072A38.4 38.4 0 0 1 682.666667 491.121778l3.527111-5.290667 3.982222-4.266667 85.333333-82.716444 6.656-7.509333 5.802667-8.078223a98.417778 98.417778 0 0 0 15.815111-56.035555c-0.568889-28.444444-11.946667-55.182222-32.085333-75.093333a102.968889 102.968889 0 0 0-72.817778-32.142223 96.142222 96.142222 0 0 0-58.823111 16.611556l-7.395556 5.404444-7.338666 6.314667-134.257778 134.712889-6.656 7.509333-5.916445 8.135111a99.555556 99.555556 0 0 0-16.156444 56.604445c0.398222 28.216889 11.946667 55.182222 32.028444 75.093333l4.152889 4.664889a38.343111 38.343111 0 0 1-50.972444 55.523556l-6.883556-5.233778-9.329777-9.898667-8.248889-10.069333a183.751111 183.751111 0 0 1-37.205334-108.259556 175.900444 175.900444 0 0 1 35.498667-110.023111l7.509333-9.216 8.362667-9.045333 133.575111-133.859556 9.386667-8.533333 9.898666-7.68a187.164444 187.164444 0 0 1 82.716445-32.881778l13.198222-1.536 13.084445-0.739555z" fill="#1296db" p-id="11484"></path></svg>