<svg width="1em" height="1em" viewBox="0 0 256 256" xmlns="http://www.w3.org/2000/svg" class="larkui-icon larkui-icon-nav-open icon-svg index-module_size_wVASz" data-name="NavOpen" style="width: 16px; min-width: 16px; height: 16px;"><defs><clipPath id="3398519080a"><path d="M189.96 0C195.505 0 200 4.477 200 10s-4.495 10-10.04 10H10.04C4.495 20 0 15.523 0 10S4.495 0 10.04 0h179.92Z"></path></clipPath><clipPath id="3398519080b"><path d="M189.96 0C195.505 0 200 4.477 200 10s-4.495 10-10.04 10H10.04C4.495 20 0 15.523 0 10S4.495 0 10.04 0h179.92Z"></path></clipPath></defs><g clip-path="url(#3398519080a)" transform="translate(28 36)"><path fill="currentColor" d="M0 0h200v20H0V0z"></path></g><g clip-path="url(#3398519080a)" transform="translate(28 118)"><path fill="currentColor" d="M0 0h200v20H0V0z"></path></g><g clip-path="url(#3398519080b)" transform="translate(28.4 200)"><path fill="currentColor" d="M0 0h200v20H0V0z"></path></g></svg>