<svg width="16" height="16" viewBox="0 0 256 256" xmlns="http://www.w3.org/2000/svg" class="larkui-icon larkui-icon-more-settings BaseSettings-module_moreActionIcon_lbrJG ant-menu-item-icon"><g fill="none" fill-rule="evenodd"><path d="M0 0h256v256H0z"></path><path d="M130 53c5.523 0 10 4.477 10 10 0 5.43-4.327 9.848-9.72 9.996L130 73H38c-5.523 0-10-4.477-10-10 0-5.43 4.327-9.848 9.72-9.996L38 53h92Zm88 65c5.523 0 10 4.477 10 10 0 5.43-4.327 9.848-9.72 9.996L218 138h-92c-5.523 0-10-4.477-10-10 0-5.43 4.327-9.848 9.72-9.996L126 118h92Zm-90 44c5.43 0 9.848 4.327 9.996 9.72l.004.28v13h80c5.523 0 10 4.477 10 10 0 5.43-4.327 9.848-9.72 9.996L218 205h-80v13c0 5.523-4.477 10-10 10-5.43 0-9.848-4.327-9.996-9.72L118 218v-46c0-5.523 4.477-10 10-10Zm-44 23c5.523 0 10 4.477 10 10 0 5.43-4.327 9.848-9.72 9.996L84 205H39c-5.523 0-10-4.477-10-10 0-5.43 4.327-9.848 9.72-9.996L39 185h45Zm87-155c5.43 0 9.848 4.327 9.996 9.72L181 40v13h37c5.523 0 10 4.477 10 10 0 5.43-4.327 9.848-9.72 9.996L218 73h-37v13c0 5.523-4.477 10-10 10-5.43 0-9.848-4.327-9.996-9.72L161 86V40c0-5.523 4.477-10 10-10ZM85 95c5.523 0 10 4.477 10 10v46l-.004.28C94.848 156.673 90.43 161 85 161c-5.523 0-10-4.477-10-10v-13H39l-.28-.004C33.327 137.848 29 133.43 29 128c0-5.523 4.477-10 10-10h36v-13l.004-.28C75.152 99.327 79.57 95 85 95Z" fill="#585a5a" fill-rule="nonzero"></path></g></svg>