<svg width="1em" height="1em" viewBox="0 0 256 256" xmlns="http://www.w3.org/2000/svg" class="larkui-icon larkui-icon-new-tab-outlined icon-svg index-module_icon_X+ssG index-module_size_wVASz" data-name="NewTabOutlined" style="width: 16px; min-width: 16px; height: 16px;"><g fill="currentColor" fill-rule="evenodd"><rect transform="rotate(45 150.929 105.071)" x="140.929" y="20.071" width="20" height="170" rx="10"></rect><path d="M83.705 28c5.523 0 10 4.477 10 10 0 5.43-4.327 9.848-9.72 9.996l-.28.004H58c-5.43 0-9.848 4.327-9.996 9.72L48 58v140c0 5.43 4.327 9.848 9.72 9.996L58 208h140c5.43 0 9.848-4.327 9.996-9.72L208 198v-22.997c0-5.522 4.477-10 10-10 5.43 0 9.848 4.327 9.996 9.72l.004.28V198c0 16.403-13.164 29.731-29.504 29.996L198 228H58c-16.403 0-29.731-13.164-29.996-29.504L28 198V58c0-16.403 13.164-29.731 29.504-29.996L58 28h25.705ZM198.047 28c16.403 0 29.732 13.164 29.996 29.504l.004.496v50c0 5.523-4.477 10-10 10-5.429 0-9.847-4.327-9.996-9.72l-.004-.28V58c0-5.43-4.326-9.848-9.72-9.996l-.28-.004h-50c-5.522 0-10-4.477-10-10 0-5.43 4.327-9.848 9.72-9.996l.28-.004h50Z" fill-rule="nonzero"></path></g></svg>