<svg width="16" height="16" viewBox="0 0 256 256" xmlns="http://www.w3.org/2000/svg" class="larkui-icon larkui-icon-nav-garden1 icon"><path d="M81.79 140.669c14.145 1.404 27.143 9.206 34.471 20.965 15.086 24.207 1.799 57.407-26.58 66.343-7.696 2.423-15.527 2.945-26.6 1.958l-1.53-.144c-7.074-.698-15.74-2.728-26.111-6.065l-1.984-.647-.422-.158a11.672 11.672 0 0 1-7.39-11.645l.106-1.581.108-1.534.112-1.488.114-1.441.118-1.395.122-1.348.188-1.937.13-1.233.134-1.188.068-.577.14-1.12.07-.543.144-1.052.149-1.006.152-.962.156-.917c.026-.15.053-.297.08-.442l.228-1.203.295-1.506.295-1.456.148-.71.298-1.384.3-1.34c.05-.22.101-.438.152-.655l.307-1.277c2.48-10.064 5.535-16.406 11.954-24.295 10.287-12.642 24.965-18.518 40.079-17.017Zm138.47 19.812c4.158 6.521 7.691 17.609 8.976 26.31l.117.838.064.521.061.553.058.584.055.616.1 1.327.046.711.081 1.52.07 1.649.058 1.78.055 2.41.038 2.62.019 2.829.002 2.416-.012 3.214-.022 2.726-.027 2.34-.022.421a11.674 11.674 0 0 1-9.374 10.682l-1.548.307-1.505.291-1.46.277-1.417.261-1.372.246-1.33.231-1.285.216-1.242.2-1.199.186-1.156.17-1.113.155-1.07.14-1.029.125-.986.11-.477.049-.923.087-.881.071-1.556.112-1.506.099-1.459.085-1.414.072-1.372.057-1.332.043c-.657.017-1.3.029-1.93.034l-1.244.003c-8.597-.04-14.926-1.328-22.88-4.747l-1.147-.503c-14.873-6.642-24.346-19.274-26.801-34.238-2.297-14.003 1.886-28.554 11.355-38.66 19.482-20.793 54.973-16.586 70.937 8.454Zm-163.005 9.948-.554.69-.529.68c-.343.448-.67.89-.983 1.33l-.458.658c-2.307 3.388-3.754 6.683-5.021 11.38l-.243.928-.12.477-.239.984-.118.508-.236 1.046c-.04.178-.08.358-.118.54l-.237 1.114-.357 1.763-.242 1.24-.184.967-.12.688-.12.734-.117.78-.115.825-.114.87-.113.916-.11.961-.109 1.006-.106 1.05-.156 1.66-.102 1.161-.056.657.66.195c.978.29 1.931.563 2.86.82l1.377.374c.679.18 1.344.352 1.996.514l1.284.312c3.588.85 6.731 1.406 9.415 1.671l1.23.116.597.053 1.164.093.567.041 1.104.07c.903.053 1.767.09 2.596.111l.978.017c.8.009 1.569 0 2.308-.023l.874-.036c3.157-.162 5.795-.635 8.313-1.428 16.079-5.063 23.544-23.715 15.508-36.61-3.973-6.376-11.335-10.795-19.363-11.592-8.49-.842-16.546 2.383-22.491 9.689Zm106.697-4.702c-5.16 5.509-7.54 13.785-6.231 21.761 1.383 8.432 6.6 15.39 15.237 19.246l.815.358c.671.288 1.323.554 1.963.798l.762.282c.38.136.754.265 1.128.386l.744.232c3.22.964 6.366 1.384 10.401 1.418h.947l.982-.012.504-.01 1.038-.032.534-.02 1.1-.05 1.144-.061 1.191-.073 1.882-.128.654-.048c.225-.017.458-.036.698-.057l.746-.072.792-.086.839-.1.437-.056.908-.121.954-.136 1-.15 1.046-.165 1.654-.274 1.755-.306.558-.1.005-2.453-.009-2.674-.03-2.927-.023-1.348-.039-1.675-.047-1.536-.057-1.394-.066-1.253-.074-1.109-.04-.5-.043-.465-.045-.427-.07-.574a43.475 43.475 0 0 0-.297-1.843l-.184-.964a59.58 59.58 0 0 0-.319-1.483l-.238-1.008a70.56 70.56 0 0 0-.82-3.053l-.304-1.012c-1.14-3.69-2.54-7.145-3.877-9.242-9.088-14.254-29.158-16.634-39.605-5.484ZM128 114c7.732 0 14 6.268 14 14s-6.268 14-14 14-14-6.268-14-14 6.268-14 14-14ZM55.74 25.93l1.038.006.996.013.955.021.914.029.873.036.422.021.812.048 1.542.106.752.054 1.465.115.715.06 1.394.126 1.35.135c11.072 1.162 17.807 3.343 26.958 9.076 13.805 8.647 21.427 22.474 21.776 37.634.326 14.186-5.842 28.013-16.625 36.703-22.187 17.88-56.746 8.774-69.07-18.243-3.495-7.663-4.944-15.725-5.225-27.646-.166-7.088.795-15.912 2.844-26.583l.399-2.03.1-.423a11.677 11.677 0 0 1 10.654-8.78l3.008-.154 2.143-.096 1.375-.055 1.332-.047 1.29-.04 1.246-.032 1.792-.035 1.696-.017 1.08-.002Zm146.592-.328c.236 0 .473.002.711.004l1.451.019.74.013 1.506.036 1.545.048.786.028 1.6.066 1.638.077.834.043 1.695.094 1.873.116.432.043a11.677 11.677 0 0 1 10.135 9.478l.274 1.52.386 2.2.355 2.103.22 1.35.206 1.308.192 1.266.178 1.224.165 1.183.15 1.141.138 1.1.123 1.06.11 1.019.095.978.083.938.068.898.029.434.07 1.21.078 1.532.067 1.484.053 1.438c.016.471.03.936.04 1.394l.027 1.352c.161 11.108-1.2 18.187-5.695 27.776-6.918 14.753-19.74 24-34.77 26.191-14.064 2.05-28.563-2.382-38.522-12.02-20.505-19.844-15.665-55.27 9.711-70.792 7.065-4.322 15.686-6.95 26.885-8.554a70.516 70.516 0 0 1 4.766-.506l1.158-.078.593-.035 1.212-.06 1.249-.048 1.285-.036 1.321-.024c.447-.006.9-.01 1.359-.011h1.395ZM55.808 45.032l-.94.002-1.494.014-1.595.03-1.12.028-1.163.035-1.207.041-.645.024-.116.685-.129.776-.242 1.522-.113.746-.21 1.462-.099.716-.18 1.4-.16 1.36c-.397 3.573-.577 6.708-.542 9.393l.025 1.143.041 1.255.05 1.21c.02.395.04.783.062 1.164l.072 1.124.082 1.082.046.527.1 1.026c.527 5.039 1.49 8.738 3.038 12.13 7.25 15.896 27.45 21.218 39.745 11.31 6.075-4.896 9.7-13.024 9.508-21.376-.203-8.829-4.542-16.7-12.827-21.89-.271-.17-.54-.336-.804-.497l-.785-.47c-4.659-2.743-8.429-4.093-14.104-4.921l-.964-.133a77.66 77.66 0 0 0-1.002-.125l-1.044-.117-1.087-.11-.56-.052-1.16-.101-1.209-.096-1.263-.093-1.32-.09-.667-.038-.712-.033-.758-.025-.804-.02-.849-.011-.895-.006Zm144.97.585-1.177.007-1.136.017-1.094.028c-.18.006-.357.011-.532.018l-1.032.043c-.506.024-.996.052-1.47.084l-.928.068-.886.079c-.72.07-1.398.15-2.03.24-8.522 1.222-14.556 3.06-18.91 5.724-14.392 8.804-17.116 28.734-6.168 39.329 5.415 5.24 13.649 7.758 21.648 6.591 8.454-1.232 15.498-6.312 19.499-14.846l.188-.405.36-.796.337-.78c.218-.514.422-1.019.612-1.518l.274-.746.255-.739c1.142-3.439 1.645-6.763 1.726-11.163l.01-.96v-.995l-.006-.512-.019-1.054-.014-.542-.035-1.118-.047-1.163-.056-1.212-.066-1.264-.057-.984-.05-.697-.062-.742-.075-.786-.088-.83-.156-1.327-.12-.938-.132-.983-.145-1.025-.158-1.069-.17-1.111-.28-1.747-1.317-.053-1.38-.045-1.339-.036-1.299-.024-1.258-.014-1.218-.004Z" fill="currentColor" fill-rule="nonzero"></path></svg>