<svg width="16" height="16" viewBox="0 0 256 256" xmlns="http://www.w3.org/2000/svg" class="larkui-icon larkui-icon-nav-garden2 icon-active"><defs><clipPath id="3790565749a"><path d="M56.173 115.067c14.144 1.404 27.142 9.206 34.47 20.965 15.085 24.207 1.799 57.407-26.581 66.343-7.696 2.423-15.526 2.945-26.6 1.959l-1.53-.144c-7.073-.699-15.739-2.729-26.11-6.066l-1.984-.646-.423-.159a11.672 11.672 0 0 1-7.389-11.645l.105-1.58.109-1.535.111-1.488.115-1.44.118-1.395.121-1.349.189-1.936.13-1.234.134-1.188.068-.577.139-1.12.07-.542.145-1.052.148-1.007.152-.962.156-.917.08-.442.228-1.203.296-1.506.295-1.455c.05-.239.098-.476.148-.71l.297-1.385.3-1.34.152-.654.308-1.278c2.48-10.064 5.534-16.406 11.954-24.295 10.286-12.642 24.965-18.517 40.079-17.017Zm138.47 19.812c4.157 6.522 7.69 17.609 8.974 26.31l.118.838.064.522.06.552.059.585.055.615.1 1.327.045.712.082 1.52.07 1.648.057 1.78.056 2.411.037 2.619.02 2.83.002 2.416-.012 3.213-.023 2.727-.026 2.34-.022.42a11.674 11.674 0 0 1-9.374 10.683l-1.549.306-1.504.292-1.46.276-1.417.261-1.372.246-1.33.231-1.285.216-1.242.2-1.2.186-1.155.17-1.113.156-1.071.14-1.028.125-.986.11-.478.048-.922.087-.881.072-1.556.111-1.506.099-1.46.086-1.413.071-1.372.058-1.332.042c-.657.018-1.3.03-1.93.035l-1.244.002c-8.597-.04-14.926-1.327-22.88-4.747l-1.147-.503c-14.874-6.642-24.347-19.274-26.801-34.238-2.298-14.002 1.886-28.553 11.355-38.66 19.482-20.793 54.972-16.585 70.936 8.454ZM102.381 88.4c7.732 0 14 6.267 14 14 0 7.731-6.268 14-14 14s-14-6.269-14-14c0-7.733 6.268-14 14-14ZM30.122.328l1.038.005.996.013.955.021.914.03.873.036.421.02.812.049 1.543.105.751.055 1.466.114.714.06L42 .963l1.35.135c11.073 1.163 17.807 3.343 26.96 9.076 13.803 8.647 21.426 22.475 21.774 37.634.326 14.186-5.841 28.014-16.624 36.704-22.187 17.88-56.746 8.774-69.07-18.244-3.496-7.663-4.945-15.724-5.225-27.645-.166-7.089.794-15.913 2.844-26.583l.398-2.03.101-.424A11.677 11.677 0 0 1 15.16.806L18.17.652l2.143-.096 1.375-.055 1.332-.047 1.29-.04 1.246-.032 1.791-.034L29.043.33l1.08-.001ZM176.714 0l.711.005 1.45.018.74.014 1.507.035 1.544.048.786.029 1.6.065 1.64.077.832.043 1.695.095 1.873.115.432.044a11.677 11.677 0 0 1 10.135 9.477l.275 1.52.386 2.2.355 2.104.22 1.35.205 1.307.192 1.266.179 1.224.164 1.183.151 1.142.137 1.1.124 1.06.11 1.018.095.979.082.938.069.898.029.434.069 1.209.079 1.533.066 1.483.054 1.438c.016.472.03.936.04 1.394l.027 1.353c.16 11.108-1.2 18.186-5.696 27.775-6.917 14.754-19.739 24-34.77 26.192-14.063 2.05-28.563-2.382-38.522-12.02-20.505-19.845-15.664-55.27 9.712-70.793 7.065-4.322 15.686-6.949 26.884-8.554a70.516 70.516 0 0 1 4.767-.505L168.3.214l.592-.034 1.213-.06 1.248-.049 1.285-.035 1.322-.024c.447-.006.9-.01 1.358-.012h1.396Z"></path></clipPath></defs><g clip-path="url(#3790565749a)" transform="translate(25.618 25.602)"><path fill="currentColor" d="M0 0h204.78v204.805H0V0z"></path></g></svg>