<svg width="1em" height="1em" viewBox="0 0 16 16" xmlns="http://www.w3.org/2000/svg" class="larkui-icon larkui-icon-pin icon-svg Groups-module_icon_pJVgg index-module_size_wVASz" data-name="Pin" style="width: 16px; min-width: 16px; height: 16px;"><g fill="none" fill-rule="evenodd"><path d="M16 0H0v16h16z"></path><path d="m14.028 5.176-3.204-3.204a.544.544 0 0 0-.773 0L7.4 4.625a5.424 5.424 0 0 0-4.004 1.157.547.547 0 0 0-.045.813l6.058 6.053a.544.544 0 0 0 .813-.044 5.437 5.437 0 0 0 1.155-4.006l2.651-2.651a.545.545 0 0 0 0-.77Z" fill="#8a8f8d"></path><path stroke="#8a8f8d" stroke-width="1.25" stroke-linecap="round" d="m2.5 13.5 3.771-3.771"></path></g></svg>