<svg width="1em" height="1em" viewBox="0 0 256 256" xmlns="http://www.w3.org/2000/svg" class="larkui-icon larkui-icon-permission-private icon-svg index-module_size_wVASz" data-name="PermissionPrivate" style="width: 14px; min-width: 14px; height: 14px;"><g transform="translate(32 15)" fill="#8a8f8d" fill-rule="evenodd"><path d="M168 78c13.255 0 24 10.745 24 24v100c0 13.255-10.745 24-24 24H24c-13.255 0-24-10.745-24-24V102c0-13.255 10.745-24 24-24h144Zm0 20H24a4 4 0 0 0-3.995 3.8L20 102v100a4 4 0 0 0 3.8 3.995l.2.005h144a4 4 0 0 0 3.995-3.8l.005-.2V102a4 4 0 0 0-3.8-3.995L168 98Z" fill-rule="nonzero"></path><path d="M96 0c29.823 0 54 24.177 54 54v44H42V54C42 24.177 66.177 0 96 0Zm0 20c-18.59 0-33.695 14.92-33.995 33.438L62 54v24h68V54c0-18.59-14.92-33.695-33.438-33.995L96 20Z" fill-rule="nonzero"></path><rect fill-rule="nonzero" x="78" y="123" width="36" height="36" rx="18"></rect><rect x="86" y="141" width="20" height="40" rx="10"></rect></g></svg>