<svg width="16" height="16" viewBox="0 0 256 256" xmlns="http://www.w3.org/2000/svg" class="larkui-icon larkui-icon-wiki icon"><path d="M75.735 20c3.411 0 6.582 1.028 9.22 2.79a16.54 16.54 0 0 1 9.22-2.79h33.12c9.177 0 16.616 7.439 16.616 16.615v27.372c2.368-6.285 8.438-10.756 15.552-10.756h29.623a16.615 16.615 0 0 1 16.384 13.848l25.256 149.539c.155.914.232 1.84.232 2.767 0 9.176-7.439 16.615-16.615 16.615h-28.17c-8.05 0-14.942-5.77-16.357-13.694L143.91 77.268v142.117c0 9.176-7.438 16.615-16.615 16.615h-33.12a16.538 16.538 0 0 1-9.22-2.79 16.54 16.54 0 0 1-9.22 2.79h-33.12C33.44 236 26 228.561 26 219.385V36.615C26 27.44 33.439 20 42.615 20h33.12Zm0 176.25h-33.12v23.135h33.12V196.25Zm51.56-159.635h-33.12v182.77h33.12V36.615Zm61.791 33.231h-29.623l26.71 149.539h28.17L189.086 69.846ZM75.735 36.616h-33.12v143.019h33.12V36.615Z" fill="currentColor" fill-rule="nonzero"></path></svg>