<svg width="1em" height="1em" viewBox="0 0 256 256" xmlns="http://www.w3.org/2000/svg" class="larkui-icon larkui-icon-nav-team1"><path d="M92.889 25.067c-29.823 0-54 24.176-54 54 0 29.823 24.177 54 54 54s54-24.177 54-54c0-29.824-24.177-54-54-54Zm0 20c18.778 0 34 15.222 34 34 0 18.777-15.222 34-34 34s-34-15.223-34-34c0-18.778 15.222-34 34-34Zm22.558 98.454H67.985c-23.562 0-43.985 16.31-49.195 39.289l-2.989 13.183a25 25 0 0 0-.619 5.528c0 13.807 11.193 25 25 25H141.81a25 25 0 0 0 4.873-.48c13.542-2.691 22.339-15.851 19.647-29.393l-2.698-13.576c-4.57-22.99-24.745-39.55-48.185-39.55Zm0 20c13.898 0 25.86 9.818 28.569 23.45l2.698 13.575a5 5 0 0 1-4.904 5.975H40.182a5 5 0 0 1-4.876-6.106l2.989-13.183c3.144-13.867 15.47-23.71 29.69-23.71h47.462Zm61.614-17.144 8.226.089 12.175.09c14.598.303 22.236 2.904 31.7 11.758 5.917 5.537 11.964 17.24 14.622 28.43 3.614 15.22 1.186 28.801-9.951 36.763a10 10 0 0 1-5.815 1.865l-38.783.005c-5.522 0-10-4.477-10-10-.001-5.522 4.475-10 9.998-10l34.654-.005.026-.04c1.626-2.756 1.919-7.348.515-13.523l-.103-.444c-1.813-7.633-6.065-15.861-8.827-18.446-5.34-4.995-8.249-6.09-17.489-6.345l-.895-.021-12.008-.088-8.26-.089c-5.523-.06-9.952-4.585-9.893-10.107.06-5.523 4.586-9.951 10.108-9.892Zm-5.408-113.71c26.73 0 48.4 21.67 48.4 48.4 0 26.73-21.67 48.4-48.4 48.4-4.233 0-7.8-.362-11.172-1.195-5.361-1.325-8.634-6.746-7.309-12.107 1.303-5.27 6.563-8.523 11.834-7.373l.273.064c1.653.408 3.65.61 6.374.61 15.684 0 28.4-12.714 28.4-28.4 0-15.684-12.716-28.4-28.4-28.4l-.838.005c-3.373.033-5.292.28-7.167.849l-.225.07c-5.264 1.671-10.886-1.24-12.558-6.504-1.672-5.264 1.24-10.886 6.504-12.558 4.292-1.363 8.34-1.861 14.284-1.861Z" fill="currentColor" fill-rule="nonzero"></path></svg>