<svg width="16" height="16" viewBox="0 0 256 256" xmlns="http://www.w3.org/2000/svg" class="larkui-icon larkui-icon-nav-wiki icon-active"><path d="M63.785 20c9.177 0 16.616 7.439 16.616 16.615v182.77C80.4 228.56 72.96 236 63.785 236h-33.17C21.44 236 14 228.561 14 219.385V36.615C14 27.44 21.439 20 30.615 20h33.17Zm5.864 159.635H22.955v16.616H69.65v-16.616ZM105.76 20h33.17c9.177 0 16.616 7.439 16.616 16.615v182.77c0 9.176-7.44 16.615-16.616 16.615h-33.17c-9.176 0-16.615-7.439-16.615-16.615V36.615C89.145 27.44 96.584 20 105.76 20Zm96.363 216h28.218c9.176 0 16.615-7.439 16.615-16.615 0-.928-.078-1.855-.232-2.77L221.448 67.077a16.615 16.615 0 0 0-16.383-13.846h-29.67c-9.177 0-16.616 7.439-16.616 16.615 0 .98.087 1.959.26 2.924l26.728 149.538A16.615 16.615 0 0 0 202.123 236Z" fill="currentColor" fill-rule="evenodd"></path></svg>