<svg width="16" height="16" viewBox="0 0 256 256" xmlns="http://www.w3.org/2000/svg" class="larkui-icon larkui-icon-rename BaseSettings-module_moreActionIcon_lbrJG ant-menu-item-icon"><g fill="none" fill-rule="evenodd"><path d="M0 0h256v256H0z"></path><path d="M121 66c0 5.523-4.477 10-10 10H58c-5.43 0-9.848 4.327-9.996 9.72L48 86v81c0 5.43 4.327 9.848 9.72 9.996L58 177h52.498c5.522 0 9.998 4.476 9.998 9.998 0 5.522-4.476 9.998-9.998 9.999L58 197c-16.403 0-29.731-13.164-29.996-29.504L28 167V86c0-16.403 13.164-29.731 29.504-29.996L58 56h53c5.523 0 10 4.477 10 10Z" fill="#585a5a" fill-rule="nonzero"></path><path stroke="#585a5a" stroke-width="20" stroke-linecap="round" d="M184.5 47.3v163M218.3 37.5h-67M218.3 217.5h-67"></path></g></svg>