<svg width="16" height="16" viewBox="0 0 256 256" xmlns="http://www.w3.org/2000/svg" class="larkui-icon larkui-icon-statistics index-module_navIcon_4yyA-"><path d="M32 38c5.43 0 9.848 4.327 9.996 9.72L42 48v130.856c0 12.029 9.654 21.803 21.636 21.997l.364.003h160c5.523 0 10 4.477 10 10 0 5.43-4.327 9.848-9.72 9.996l-.28.004H64c-22.964 0-41.623-18.43-41.994-41.305l-.006-.695V48c0-5.523 4.477-10 10-10Zm45.803 41.16c5.43 0 9.848 4.327 9.996 9.72l.004.28v81.922c0 5.523-4.477 10-10 10-5.43 0-9.848-4.327-9.996-9.72l-.004-.28V89.16c0-5.523 4.477-10 10-10Zm121.93 28.888c5.429 0 9.847 4.327 9.995 9.72l.004.28v53.034c0 5.523-4.477 10-10 10-5.429 0-9.848-4.327-9.996-9.72l-.004-.28v-53.034c0-5.522 4.477-10 10-10ZM138.767 38c5.429 0 9.848 4.327 9.996 9.72l.004.28v123.082c0 5.523-4.478 10-10 10-5.43 0-9.848-4.327-9.997-9.72l-.003-.28V48c0-5.523 4.477-10 10-10Z" fill="currentColor" fill-rule="nonzero"></path></svg>