<svg width="1em" height="1em" viewBox="0 0 16 16" xmlns="http://www.w3.org/2000/svg" xmlns:xlink="http://www.w3.org/1999/xlink" class="larkui-icon larkui-icon-swip-outlined icon-svg index-module_icon_X+ssG index-module_size_wVASz" data-name="SwipOutlined" style="width: 16px; min-width: 16px; height: 16px;"><defs><path id="1124380380a" d="M0 0h16v16H0z"></path></defs><g fill="none" fill-rule="evenodd"><mask id="1124380380b" fill="#fff"><use xlink:href="#1124380380a"></use></mask><path d="M8 1c1.07 0 1.938.867 1.938 1.938v2.874h1.413c.844 0 1.54.645 1.618 1.47l.007.147v.18l.003.29.004.391.004.32.006.407.005.289.007.275.008.304.008.245.008.232.01.253.01.202.007.127.008.12.01.143.007.107.008.101.007.072c.064.69.429 1.424 1.119 2.203a.75.75 0 0 1-.561 1.248h-9.03a2.125 2.125 0 0 1-2.119-2.293l.422-5.336a1.625 1.625 0 0 1 1.62-1.497h1.515V2.937c0-1.019.787-1.854 1.787-1.931Zm3.35 6.063H4.548a.375.375 0 0 0-.374.345l-.422 5.335a.875.875 0 0 0 .872.944H6.45c-.456-.69-.72-1.386-.785-2.085l-.01-.111-.006-.077-.01-.122-.008-.127-.006-.089-.008-.138-.007-.145-.008-.151-.006-.157a.625.625 0 1 1 1.249-.052l.006.145.009.183.007.13.007.126.005.08.008.114.005.073.009.104.008.099c.064.689.429 1.422 1.117 2.2h1.55c-.457-.69-.722-1.386-.786-2.085l-.01-.111-.006-.077-.01-.122-.008-.127-.006-.089-.008-.138-.007-.145-.008-.151-.006-.157a.625.625 0 1 1 1.249-.052l.006.145.009.183.007.13.007.126.005.08.008.114.005.073.009.104.008.099c.064.689.429 1.422 1.117 2.2h1.486l-.025-.038c-.431-.664-.686-1.333-.756-2.005l-.004-.042-.002-.026-.007-.077-.01-.138-.01-.117-.007-.122-.01-.163-.01-.207-.01-.22-.01-.236-.008-.248-.008-.263-.008-.324-.006-.292-.004-.254-.005-.319-.004-.388-.004-.408-.002-.364a.375.375 0 0 0-.375-.373ZM8.019 2.25H8a.687.687 0 0 0-.688.688v2.874h1.375V2.938a.688.688 0 0 0-.669-.687Z" fill="currentColor" fill-rule="nonzero" mask="url(#1124380380b)"></path></g></svg>