<svg t="1701658123796" class="icon" viewBox="0 0 1024 1024" version="1.1" xmlns="http://www.w3.org/2000/svg" p-id="4893" width="200" height="200"><path d="M512.00768 960c-254.784 0-384-59.904-384-178.112 0-84.416 133.12-139.648 265.856-158.336v-17.536c-79.68-58.24-118.464-159.936-118.464-309.952C275.39968 150.784 362.37568 64 508.10368 64h7.808c145.792 0 232.768 86.784 232.768 232.064 0 56.448 0 223.808-117.568 310.144l-0.384 17.408C763.20768 642.432 896.00768 697.6 896.00768 781.888 896.00768 900.096 766.79168 960 512.00768 960zM508.03968 120c-80.256 0-175.872 29.952-175.872 172.8 0 137.344 34.56 225.92 105.536 270.72 8.96 5.696 14.464 15.872 14.464 26.88v62.72a30.848 30.848 0 0 1-26.944 31.232c-145.728 15.232-242.368 71.232-242.368 101.568 0 97.6 179.008 118.08 329.152 118.08 150.208 0 329.152-20.48 329.152-118.08 0-30.336-96.64-86.4-242.368-101.568a30.912 30.912 0 0 1-26.88-31.936l1.28-62.72a31.744 31.744 0 0 1 14.4-26.176c71.168-44.928 104.32-130.944 104.32-270.72 0-142.848-95.68-172.8-175.936-172.8h-7.936zM997.76768 704a26.88 26.88 0 0 1-26.112-27.584c0-21.12-74.56-72.384-160.96-82.048a27.072 27.072 0 0 1-23.424-27.456v-57.408c0-9.408 4.608-18.176 12.16-23.232 67.584-45.44 74.88-146.496 74.88-187.776 0-95.296-60.992-115.328-112.192-115.328a26.88 26.88 0 0 1-26.176-27.52 26.88 26.88 0 0 1 26.176-27.648c101.44 0 164.48 65.28 164.48 170.496 0 48.064-8.768 162.752-87.04 225.472v19.136C923.20768 559.168 1024.00768 612.096 1024.00768 676.416a26.88 26.88 0 0 1-26.176 27.584zM26.24768 704a26.88 26.88 0 0 0 26.112-27.584c0-21.12 74.56-72.384 160.96-82.048a27.072 27.072 0 0 0 23.424-27.456v-57.408a28.032 28.032 0 0 0-12.16-23.232c-67.584-45.44-74.88-146.496-74.88-187.776 0-95.296 60.992-115.328 112.192-115.328a26.88 26.88 0 0 0 26.176-27.52A26.88 26.88 0 0 0 261.83168 128c-101.44 0-164.48 65.28-164.48 170.496 0 48.064 8.768 162.752 87.04 225.472v19.136C100.80768 559.168 0.00768 612.096 0.00768 676.416A26.88 26.88 0 0 0 26.18368 704z" fill="#000000" p-id="4894"></path></svg>