<svg viewBox="0 0 256 256" xmlns="http://www.w3.org/2000/svg" width="1em" class="larkui-icon larkui-icon-editor-vertical-align-top" height="1em"><path d="M119.037 70.245c5.85-4.875 14.501-4.17 19.49 1.526l.228.267 18.927 22.712.186.23c3.328 4.237 2.7 10.382-1.466 13.854-4.167 3.473-10.324 2.982-13.892-1.056l-.192-.224-4.318-5.181v115.98l-.004.28c-.148 5.394-4.567 9.72-9.996 9.72-5.523 0-10-4.477-10-10v-115.98l-4.318 5.18-.192.225a10 10 0 0 1-13.663 1.242l-.229-.186-.224-.192a10 10 0 0 1-1.242-13.663l.186-.229 18.927-22.712.332-.385a14 14 0 0 1 1.46-1.408ZM216 28c5.523 0 10 4.477 10 10 0 5.43-4.327 9.848-9.72 9.996L216 48H40c-5.523 0-10-4.477-10-10 0-5.43 4.327-9.848 9.72-9.996L40 28h176Z" fill="currentColor" fill-rule="nonzero"></path></svg>