<svg width="1em" height="1em" viewBox="0 0 36 36" xmlns="http://www.w3.org/2000/svg" class="larkui-icon larkui-icon-editor-main-attachment"><g fill="none" fill-rule="evenodd"><rect stroke="#E7E9E8" fill="#FFF" x="0.5" y="0.5" width="35" height="35" rx="6"></rect><path d="M14.748 8.25H8.314a2 2 0 0 0-2 1.93c-.167 4.762-.25 8.064-.25 9.906 0 1.702.071 3.915.214 6.638a2 2 0 0 0 1.994 1.895h15.112l3.05-10.605 1.135-5.954a1 1 0 0 0-.983-1.187h-6.781a3 3 0 0 1-2.192-.952l-.672-.719a3 3 0 0 0-2.193-.952Z" stroke="currentColor" fill="#BEC0BF" stroke-linejoin="round"></path><path d="M8.038 25.827c.74-2.047 1.602-5.584 2.584-10.612.226-.908 1.103-1.551 2.114-1.551 3.68-.151 6.278-.227 7.792-.227h10.523c.599-.002 1.086.444 1.089.997 0 .054-.005.109-.014.163-1.696 6.041-2.896 9.785-3.602 11.23-1.059 2.168-2.053 2.792-4.715 2.792H8.038" stroke="currentColor" fill="#EFF0F0" stroke-linecap="round" stroke-linejoin="round"></path><path d="M22.84 23.588c.412-.391.815-.866 1.209-1.426.59-.84 1.027-2.642.206-3.727s-2.86-1.085-3.943-.435c-1.082.65-3.318 3.104-3.855 3.64-.536.537-.879 2.169-.056 2.965.823.797 2.45.402 3.349-.389.898-.79 1.869-1.972 2.298-2.4.428-.43.714-1.126.176-1.663-.538-.538-1.198-.173-1.604.234l-2.494 2.494" stroke="#00B96B" stroke-linecap="round" stroke-linejoin="round"></path></g></svg>