<svg width="20" height="20" viewBox="0 0 20 20" xmlns="http://www.w3.org/2000/svg" class="larkui-icon larkui-icon-user"><path d="M16.004 15.508a6.5 6.5 0 0 0-1.397-2.07 6.5 6.5 0 0 0-2.878-1.678 5.362 5.362 0 0 0 2.076-1.293 5.346 5.346 0 0 0 1.576-3.803 5.337 5.337 0 0 0-1.576-3.803 5.346 5.346 0 0 0-3.803-1.576 5.337 5.337 0 0 0-3.803 1.576 5.346 5.346 0 0 0-1.576 3.803c0 1.436.559 2.787 1.576 3.803a5.362 5.362 0 0 0 2.076 1.293 6.5 6.5 0 0 0-2.879 1.678 6.5 6.5 0 0 0-1.908 4.607.703.703 0 1 0 1.407 0c0-1.365.53-2.649 1.496-3.613a5.076 5.076 0 0 1 3.613-1.496c1.365 0 2.648.53 3.613 1.496a5.076 5.076 0 0 1 1.496 3.613.703.703 0 1 0 1.407 0 6.552 6.552 0 0 0-.516-2.537ZM10 10.637a3.977 3.977 0 0 1-3.973-3.973A3.977 3.977 0 0 1 10 2.691a3.977 3.977 0 0 1 3.973 3.973A3.976 3.976 0 0 1 10 10.637Z" fill="currentColor" fill-rule="nonzero"></path></svg>