<svg width="20" height="20" viewBox="0 0 24 24" xmlns="http://www.w3.org/2000/svg" class="larkui-icon larkui-icon-statistics-book"><g fill="none" fill-rule="evenodd"><circle fill="#E1EAFF" cx="12" cy="12" r="12"></circle><path d="M14.882 6h.706C16.368 6 17 6.63 17 7.405v10.19C17 18.37 16.368 19 15.588 19h-.706V6Zm-1.294 13H8.412C7.632 19 7 18.37 7 17.595V7.405C7 6.63 7.632 6 8.412 6h5.176v13Z" fill="#3478FF"></path><path d="M6.588 11.915h.941a.587.587 0 0 1 0 1.17h-.94A.587.587 0 0 1 6 12.5c0-.323.264-.585.588-.585Zm0-3.397h.941a.587.587 0 0 1 0 1.171h-.94a.587.587 0 0 1-.57-.585c0-.317.252-.576.57-.586Zm0 6.793h.941c.325 0 .589.262.589.585a.587.587 0 0 1-.589.586h-.94A.587.587 0 0 1 6 15.896c0-.323.263-.585.588-.585Z" fill="#94B6FD" fill-rule="nonzero"></path></g></svg>