<svg width="16" height="16" viewBox="0 0 256 256" xmlns="http://www.w3.org/2000/svg" xmlns:xlink="http://www.w3.org/1999/xlink" class="larkui-icon larkui-icon-permission index-module_navIcon_4yyA-"><defs><path id="1825377134a" d="M0 0h256v256H0z"></path></defs><g fill="none" fill-rule="evenodd"><mask id="1825377134b" fill="#fff"><use xlink:href="#1825377134a"></use></mask><path d="M173.844 110.217c17.475 0 31.884 13.48 32.17 30.483l.005.517v7.002c12.698.164 22.966 10.407 23.17 23.096l.003.385v35.034c0 12.84-10.304 23.272-23.095 23.48l-.388.003h-64.557c-12.84 0-23.273-10.305-23.48-23.095l-.004-.388V171.7c0-12.84 10.305-23.273 23.095-23.48l.389-.003h.516v-7c0-17.247 14.524-31 32.176-31ZM188 26c22.964 0 41.623 18.43 41.994 41.305L230 68v26c0 5.523-4.477 10-10 10-5.43 0-9.848-4.327-9.996-9.72L210 94V68c0-12.029-9.654-21.803-21.636-21.997L188 46H68c-12.029 0-21.803 9.654-21.997 21.636L46 68v120c0 12.029 9.654 21.803 21.636 21.997L68 210h27c5.523 0 10 4.477 10 10 0 5.43-4.327 9.848-9.72 9.996L95 230H68c-22.964 0-41.623-18.43-41.994-41.305L26 188V68c0-22.964 18.43-41.623 41.305-41.994L68 26h120Zm17.71 142.217h-64.558a3.483 3.483 0 0 0-3.478 3.292l-.006.19v35.035a3.483 3.483 0 0 0 3.292 3.478l.192.005h64.557a3.483 3.483 0 0 0 3.478-3.292l.005-.191V171.7a3.483 3.483 0 0 0-3.483-3.483Zm-31.866-38c-6.737 0-12.011 4.896-12.172 10.726l-.004.274v7h24.35l.001-7c0-5.95-5.333-11-12.175-11ZM169 73c5.523 0 10 4.477 10 10s-4.477 10-10 10H87c-5.523 0-10-4.477-10-10s4.477-10 10-10h82Z" fill="currentColor" fill-rule="nonzero" mask="url(#1825377134b)"></path></g></svg>