<svg width="16" height="16" viewBox="0 0 256 256" xmlns="http://www.w3.org/2000/svg" class="larkui-icon larkui-icon-member index-module_navIcon_4yyA-"><g fill="none" fill-rule="evenodd"><path d="M149.28 46c29.638 0 53.664 24.026 53.664 53.665 0 17.302-8.188 32.691-20.9 42.505 29.993 12.753 51.024 42.49 51.024 77.139 0 5.523-4.477 10-10 10-5.429 0-9.848-4.327-9.996-9.72l-.004-.28c0-35.23-28.559-63.789-63.788-63.789-34.878 0-63.217 27.99-63.78 62.734l-.01 1.055c0 5.523-4.476 10-10 10-5.522 0-10-4.477-10-10 0-34.65 21.032-64.386 51.026-77.141-12.713-9.812-20.901-25.201-20.901-42.503C95.615 70.026 119.64 46 149.28 46ZM92.26 26c6.082 0 12.014 1.192 17.526 3.477 5.101 2.116 7.522 7.966 5.407 13.068-2.08 5.014-7.766 7.438-12.804 5.512l-.264-.105A25.668 25.668 0 0 0 92.26 46c-14.236 0-25.777 11.54-25.777 25.776a25.64 25.64 0 0 0 6.555 17.175l.318.35c.12.129.236.26.348.394a9.963 9.963 0 0 1 2.847 3.955c2.005 5.044-.38 10.746-5.335 12.878l-.263.109C53.618 113.529 42 130.337 42 149.31c0 5.522-4.477 10-10 10s-10-4.478-10-10c0-22.838 11.725-43.49 30.184-55.398a45.64 45.64 0 0 1-5.7-22.137C46.484 46.495 66.98 26 92.261 26Zm57.02 40c-18.593 0-33.665 15.072-33.665 33.665 0 18.592 15.072 33.664 33.665 33.664 18.592 0 33.664-15.072 33.664-33.664C182.944 81.072 167.872 66 149.28 66Z" fill="currentColor" fill-rule="nonzero"></path></g></svg>