<svg width="16" height="16" viewBox="0 0 16 16" xmlns="http://www.w3.org/2000/svg" class="larkui-icon larkui-icon-icon-documentmanagement index-module_navIcon_95jiJ"><path d="M10.177 1.28c.15-.003.305.05.43.175l3.438 3.438a.58.58 0 0 1 .173.46v7.585c0 .983-.797 1.78-1.78 1.78H3.562a1.781 1.781 0 0 1-1.78-1.78V3.062c0-.983.797-1.78 1.78-1.78Zm-.584 1.188h-6.03a.594.594 0 0 0-.594.595v9.874c0 .328.266.594.594.594h8.874a.594.594 0 0 0 .594-.594v-7.03h-1.594c-.967 0-1.76-.746-1.837-1.693l-.006-.152V2.468Zm1.032 8.063a.594.594 0 1 1 0 1.188h-5.25a.594.594 0 1 1 0-1.188h5.25Zm0-2.5a.594.594 0 1 1 0 1.188h-5.25a.594.594 0 0 1 0-1.188h5.25Zm.156-4.723v.755c0 .356.285.646.639.656h.772l-1.41-1.41Z" fill="currentColor" fill-rule="nonzero"></path></svg>