<svg width="20" height="20" viewBox="0 0 24 24" xmlns="http://www.w3.org/2000/svg" class="larkui-icon larkui-icon-statistics-like Statistics-module_icon_3e2f8"><g fill="none" fill-rule="evenodd"><circle fill="#E1EAFF" cx="12" cy="12" r="12"></circle><path d="M11.041 6c1.452-.036 2.108 1.146 2.07 3.299l-.004.149.54-.013.398-.007.543-.002.482.005.287.008.26.012.233.016.107.01.193.021a2.9 2.9 0 0 1 .31.056l.058.015c.804.232 1.355.898 1.457 1.622.062.434.008.822-.16 1.162l-.059.106.005.016c.033.144.044.288.031.48l-.01.123c-.037.374-.12.628-.303.91l.012.078c.007.062.01.134.012.226v.098c0 .398-.129.85-.34 1.21l-.01.016.005.028c.025.148.03.304.016.51l-.01.128c-.078.834-.825 1.674-1.936 1.71-.303.01-.602.01-.912.003l-.376-.011-.393-.02-.34-.022-1.243-.095-.693-.064-.824-.086-1.212-.138-.689-.083H7.03c-.52 0-.962-.362-1.023-.848L6 16.513V11.76c0-.543.47-.963 1.03-.963h1.558c.306-.49.521-.9.648-1.231a7.86 7.86 0 0 0 .39-1.334l.102-.523.058-.265c.239-1.011.526-1.424 1.255-1.443Z" fill="#3478FF" fill-rule="nonzero"></path></g></svg>