<svg width="16" height="16" viewBox="0 0 256 256" xmlns="http://www.w3.org/2000/svg" class="larkui-icon larkui-icon-directory index-module_navIcon_95jiJ"><path d="M88 40.8c5.523 0 10 4.477 10 10 0 5.43-4.327 9.848-9.72 9.996L88 60.8H65.997L66 61v47c0 5.43 4.327 9.848 9.72 9.996L76 118h11c5.523 0 10 4.477 10 10 0 5.43-4.327 9.848-9.72 9.996L87 138H76c-3.506 0-6.872-.602-10-1.707V186c0 5.43 4.327 9.848 9.72 9.996L76 196h11c5.523 0 10 4.477 10 10 0 5.43-4.327 9.848-9.72 9.996L87 216H76c-16.403 0-29.731-13.164-29.996-29.504L46 186V61l.002-.2H26c-5.523 0-10-4.477-10-10 0-5.43 4.327-9.848 9.72-9.996L26 40.8h62Zm49.983-.653 92 .353c5.523.021 9.983 4.516 9.962 10.038-.02 5.43-4.365 9.832-9.758 9.96l-.28.002-92-.354c-5.523-.02-9.983-4.515-9.962-10.038.021-5.43 4.365-9.831 9.759-9.959l.28-.002Zm0 78 92 .353c5.523.021 9.983 4.516 9.962 10.038-.02 5.43-4.365 9.832-9.758 9.96l-.28.002-92-.354c-5.523-.02-9.983-4.515-9.962-10.038.021-5.43 4.365-9.831 9.759-9.959l.28-.002Zm0 78 92 .353c5.523.021 9.983 4.516 9.962 10.038-.02 5.43-4.365 9.832-9.758 9.96l-.28.002-92-.354c-5.523-.02-9.983-4.515-9.962-10.038.021-5.43 4.365-9.831 9.759-9.959l.28-.002Z" fill="currentColor" fill-rule="nonzero"></path></svg>