<svg width="1em" height="1em" viewBox="0 0 256 256" xmlns="http://www.w3.org/2000/svg" class="larkui-icon larkui-icon-saveastemplate2 icon-svg docInfoTabContent-module_infoIcon_1fIbt index-module_size_wVASz" data-name="Saveastemplate2"><g fill="currentColor" fill-rule="evenodd"><path d="M186 16H70c-16.569 0-30 13.431-30 30v164c0 16.569 13.431 30 30 30h116c16.569 0 30-13.431 30-30V46c0-16.569-13.431-30-30-30ZM70 36h116c5.523 0 10 4.477 10 10v164c0 5.523-4.477 10-10 10H70c-5.523 0-10-4.477-10-10V46c0-5.523 4.477-10 10-10Z" fill-rule="nonzero"></path><rect x="80" y="60" width="96" height="20" rx="10"></rect><rect x="80" y="108" width="96" height="20" rx="10"></rect><rect x="80" y="156" width="55" height="20" rx="10"></rect></g></svg>