<svg width="1em" height="1em" viewBox="0 0 256 256" xmlns="http://www.w3.org/2000/svg" class="larkui-icon larkui-icon-expand icon-svg docOperationTabContent-module_menuIcon_s1LqR index-module_size_wVASz" data-name="Expand"><path d="M50 116c5.43 0 9.848 4.327 9.996 9.72L60 126v63.158c0 3.7 2.937 6.714 6.607 6.838l.235.004H130c5.523 0 10 4.477 10 10 0 5.43-4.327 9.848-9.72 9.996L130 216H66.842c-14.676 0-26.601-11.778-26.838-26.398l-.004-.444V126c0-5.523 4.477-10 10-10Zm139.658-75.5c14.676 0 26.601 11.778 26.838 26.398l.004.444V130.5c0 5.523-4.477 10-10 10-5.43 0-9.848-4.327-9.996-9.72l-.004-.28V67.342c0-3.7-2.937-6.714-6.607-6.838l-.235-.004H126.5c-5.523 0-10-4.477-10-10 0-5.43 4.327-9.848 9.72-9.996l.28-.004h63.158Z" fill="currentColor" fill-rule="nonzero"></path></svg>