<svg width="1em" height="1em" viewBox="0 0 256 256" xmlns="http://www.w3.org/2000/svg" class="larkui-icon larkui-icon-action-version icon-svg docOperationTabContent-module_menuIcon_s1LqR index-module_size_wVASz" data-name="ActionVersion"><g fill="currentColor" fill-rule="nonzero"><path d="M128 25c56.885 0 103 46.115 103 103s-46.115 103-103 103S25 184.885 25 128c0-5.523 4.477-10 10-10s10 4.477 10 10c0 45.84 37.16 83 83 83s83-37.16 83-83-37.16-83-83-83c-25.335 0-48.78 11.41-64.455 30.702-3.482 4.286-9.78 4.938-14.067 1.455-4.286-3.483-4.937-9.78-1.455-14.067C67.457 39.172 96.577 25 128 25Z"></path><path d="m123.04 116 42 .171c5.523.023 9.982 4.518 9.96 10.041-.023 5.43-4.367 9.83-9.761 9.956l-.28.003-42-.171c-5.523-.023-9.981-4.518-9.959-10.04.022-5.43 4.367-9.831 9.76-9.957l.28-.003Z"></path><path d="M122.982 116c5.43-.01 9.856 4.309 10.014 9.702l.004.28.072 40c.01 5.523-4.46 10.008-9.982 10.018-5.43.01-9.856-4.31-10.014-9.702l-.004-.28-.072-40c-.01-5.523 4.46-10.008 9.982-10.018ZM107.693 81.272c-1.247 5.277-6.463 8.58-11.739 7.496l-.293-.065L48.522 77.56c-5.454-1.289-8.764-6.796-7.393-12.19l.08-.294 13.493-47.132c1.52-5.31 7.056-8.382 12.366-6.862 5.213 1.492 8.269 6.856 6.94 12.076l-.079.29-10.608 37.06 36.941 8.733c5.277 1.247 8.58 6.463 7.496 11.74l-.065.292Z"></path></g></svg>