<svg width="1em" height="1em" viewBox="0 0 256 256" xmlns="http://www.w3.org/2000/svg" class="larkui-icon larkui-icon-like icon-svg docInfoTabContent-module_infoIcon_1fIbt index-module_size_wVASz" data-name="Like"><path d="M147.827 20.644c10.18 1.9 18.546 7.8 22.546 17.499 3.302 8.003 3.163 18.086.7 30.171-1.146 5.621-2.777 11.51-4.783 17.579-.19.572-.38 1.14-.573 1.707l-.18.523h41.237c16.403 0 29.732 13.163 29.998 29.503l.004.496c0 2.868-.411 5.722-1.221 8.473l-21.484 72.987c-6.011 20.423-24.757 34.447-46.046 34.447H73c-.256 0-.51-.01-.761-.029H54c-16.569 0-30-13.431-30-30v-87c0-16.569 13.431-30 30-30l28.087-.001c16.584-35.788 30.038-56.442 42.27-63.188 6.293-3.47 15.282-4.694 23.47-3.167Zm-13.812 20.68c-7.531 4.154-20.26 24.271-36.014 58.954L98 214.028h70.025a28 28 0 0 0 26.86-20.093l21.484-72.987a10 10 0 0 0 .407-2.825c0-5.523-4.478-10-10.001-10h-55.706c-6.994 0-11.8-6.98-9.374-13.483l1.016-2.53a248.67 248.67 0 0 0 1.308-3.33 204.313 204.313 0 0 0 3.281-9.163c1.776-5.373 3.203-10.524 4.176-15.296 1.736-8.52 1.827-15.114.409-18.552-1.201-2.91-3.776-4.727-7.726-5.464-3.789-.707-8.07-.124-10.144 1.02ZM78 107H54c-5.43 0-9.848 4.327-9.996 9.72L44 117v87c0 5.523 4.477 10 10 10h24V107Z" fill="currentColor" fill-rule="nonzero"></path></svg>