<svg width="1em" height="1em" viewBox="0 0 256 256" xmlns="http://www.w3.org/2000/svg" class="larkui-icon larkui-icon-functionboard icon-svg moreFeaturesTab-module_icon_pSX83 index-module_size_wVASz" data-name="Functionboard" style="width: 18px; min-width: 18px; height: 18px;"><path d="M74 32c-25.405 0-46 20.595-46 46s20.595 46 46 46 46-20.595 46-46-20.595-46-46-46Zm0 20c14.36 0 26 11.64 26 26s-11.64 26-26 26-26-11.64-26-26 11.64-26 26-26Zm16 84H58c-16.569 0-30 13.431-30 30v32c0 16.569 13.431 30 30 30h32c16.569 0 30-13.431 30-30v-32c0-16.569-13.431-30-30-30Zm0 20c5.523 0 10 4.477 10 10v32c0 5.523-4.477 10-10 10H58c-5.523 0-10-4.477-10-10v-32c0-5.523 4.477-10 10-10h32Zm108-20h-32c-16.569 0-30 13.431-30 30v32c0 16.569 13.431 30 30 30h32c16.569 0 30-13.431 30-30v-32c0-16.569-13.431-30-30-30Zm0 20c5.523 0 10 4.477 10 10v32c0 5.523-4.477 10-10 10h-32c-5.523 0-10-4.477-10-10v-32c0-5.523 4.477-10 10-10h32Zm23.598-99.213-18.385-18.385c-11.716-11.716-30.71-11.716-42.426 0l-18.385 18.385c-11.716 11.716-11.716 30.71 0 42.426l18.385 18.385c11.716 11.716 30.71 11.716 42.426 0l18.385-18.385c11.716-11.716 11.716-30.71 0-42.426Zm-14.142 14.142c3.905 3.905 3.905 10.237 0 14.142l-18.385 18.385c-3.905 3.905-10.237 3.905-14.142 0L156.544 85.07c-3.905-3.905-3.905-10.237 0-14.142l18.385-18.385c3.905-3.905 10.237-3.905 14.142 0l18.385 18.385Z" fill="currentColor" fill-rule="nonzero"></path></svg>