<svg width="1em" height="1em" viewBox="0 0 256 256" xmlns="http://www.w3.org/2000/svg" class="larkui-icon larkui-icon-save-as-template icon-svg docOperationTabContent-module_menuIcon_s1LqR index-module_size_wVASz" data-name="SaveAsTemplate"><path d="m141.474 16.332.15.032.072.018.21.066 66.538 16.608c15.9 3.983 25.638 19.966 21.96 35.885l-.115.482-16.7 67.047c-3.273 13.189-14.811 22.147-27.727 22.735l23.12 40.732c7.088 12.488 2.711 28.357-9.777 35.446a26 26 0 0 1-12.834 3.388H96.02c-14.36 0-26-11.64-26-26a26 26 0 0 1 2.746-11.629C42.494 193.862 20 166.586 20 134.055c0-38.106 30.864-69 68.94-69 3.141 0 6.257.21 9.333.628l6.844-27.481c3.992-16.084 20.274-25.876 36.357-21.87Zm2.684 111.634a6 6 0 0 0-8.18 2.256L90.803 209.81a6 6 0 0 0 5.218 8.962h90.35a6 6 0 0 0 5.218-8.962l-45.175-79.587a6 6 0 0 0-2.256-2.256ZM88.94 85.055c-27.027 0-48.941 21.935-48.941 49 0 25.113 18.87 45.811 43.184 48.664l23.89-42.09C92.936 135.38 84.7 120.23 88.418 105.247l4.98-19.994c-1.474-.132-2.96-.2-4.457-.2Zm35.657-42.298-.071.27-16.7 67.047c-1.332 5.364 1.933 10.798 7.287 12.139l2.113.527 1.358-2.39c7.017-12.364 22.641-16.777 35.07-9.987l.375.21a26 26 0 0 1 9.777 9.776l9.268 16.33 9.387 2.342.152.032a9.988 9.988 0 0 0 11.495-7.138l.07-.271 16.7-67.046c1.332-5.365-1.933-10.798-7.286-12.14l-67.35-16.81-.15-.03a9.988 9.988 0 0 0-11.495 7.139Z" fill="currentColor" fill-rule="nonzero"></path></svg>