<svg width="1em" height="1em" viewBox="0 0 256 256" xmlns="http://www.w3.org/2000/svg" class="larkui-icon larkui-icon-addnav icon-svg index-module_size_wVASz" data-name="Addnav" style="width: 16px; min-width: 16px; height: 16px;"><path d="M194.412 30C219.037 30 239 49.983 239 74.634v22.582c0 5.358-4.34 9.702-9.693 9.702s-9.693-4.344-9.693-9.702V74.634c0-13.933-11.283-25.228-25.202-25.228L100 49.405v157.189h33.512c5.354 0 9.693 4.344 9.693 9.703 0 5.359-4.34 9.703-9.693 9.703H62.588C37.963 226 18 206.017 18 181.366V74.634C18 49.984 37.963 30 62.588 30h131.824ZM199 122c4.97 0 9 4.021 9 8.981V161h30.019c4.96 0 8.981 4.03 8.981 9s-4.021 9-8.981 9H208v31.019c0 4.96-4.03 8.981-9 8.981s-9-4.021-9-8.981V179h-31.019c-4.96 0-8.981-4.03-8.981-9s4.021-9 8.981-9H190v-30.019c0-4.96 4.03-8.981 9-8.981ZM80 49.405H62.588c-13.919 0-25.202 11.296-25.202 25.229v106.732c0 13.933 11.283 25.228 25.202 25.228H80V49.405Z" fill="currentColor" fill-rule="nonzero"></path></svg>