<svg width="1em" height="1em" viewBox="0 0 20 20" xmlns="http://www.w3.org/2000/svg" class="larkui-icon larkui-icon-catalog-create-link icon-svg index-module_size_wVASz" data-name="CatalogCreateLink" style="width: 16px; min-width: 16px; height: 16px;"><g fill="none" fill-rule="evenodd"><path d="M0 0h20v20H0z"></path><path d="M5.21 8.415A.753.753 0 1 1 6.276 9.48l-1.888 1.888c-1.121 1.121-1.24 3.01 0 4.25 1.237 1.24 3.129 1.121 4.25 0l1.89-1.89a.75.75 0 1 1 1.061 1.06l-1.89 1.89a4.506 4.506 0 0 1-6.376 0 4.504 4.504 0 0 1 0-6.374Zm6.07-.795a.749.749 0 1 1 1.059 1.061l-3.657 3.657a.75.75 0 1 1-1.06-1.06Zm-.974-4.298a4.504 4.504 0 0 1 6.375 0 4.51 4.51 0 0 1 0 6.377l-1.889 1.889a.753.753 0 0 1-1.064-1.065l1.888-1.888c1.121-1.121 1.24-3.01 0-4.25-1.237-1.24-3.129-1.121-4.25 0l-1.89 1.89a.751.751 0 1 1-1.062-1.062V5.21Z" fill="currentColor" fill-rule="nonzero"></path></g></svg>