<svg width="1em" height="1em" viewBox="0 0 24 32" xmlns="http://www.w3.org/2000/svg" class="larkui-icon larkui-icon-like-small-before icon-svg index-module_size_wVASz" data-name="LikeSmallBefore" style="width: 24px; min-width: 24px; height: 24px;"><path d="M11.006 10.201c2.32-.06 3.368 1.869 3.307 5.384l-.007.243.864-.021.635-.01.869-.005.77.009.458.013.415.02.373.026.17.015.31.036c.192.026.356.056.494.09l.094.026c1.284.377 2.164 1.466 2.328 2.646.098.71.012 1.342-.258 1.898l-.092.172.008.026c.053.236.07.471.05.786l-.017.199c-.06.61-.19 1.026-.485 1.484l.02.13c.01.1.017.218.019.368v.16c0 .649-.206 1.389-.542 1.975l-.018.026.01.046c.038.24.046.496.025.83l-.017.211c-.124 1.362-1.318 2.732-3.092 2.791-.486.016-.964.018-1.459.006l-.6-.019-.628-.032-.543-.036-1.986-.155-1.109-.105-1.316-.14-1.936-.225-1.094-.134h-2.43c-.844 0-1.562-.612-1.64-1.427l-.006-.146v-7.76c0-.885.752-1.572 1.646-1.572h2.49c.488-.798.833-1.47 1.035-2.01.262-.7.478-1.411.622-2.176l.164-.854.093-.433c.381-1.65.84-2.325 2.006-2.356Zm.042 1.6c-.096.002-.213.178-.346.604l-.074.258-.078.31-.08.364c-.028.131-.055.272-.084.423l-.07.38a14.578 14.578 0 0 1-.697 2.442c-.248.663-.653 1.446-1.214 2.357l-.024.038c.012.064.017.13.017.198v8.315l1.194.142 1.145.127 1.314.134.565.051 1.022.083 1.344.098.582.032.566.021.606.01c.304.002.605-.002.907-.012.894-.03 1.497-.721 1.553-1.337.041-.46.026-.618-.048-.858l-.121-.396.253-.328c.258-.333.452-.917.452-1.361v-.098l-.007-.246-.064-.18-.135-.438.342-.446c.216-.299.277-.482.317-.89l.011-.129c.017-.232.001-.324-.054-.49l-.163-.528.253-.327c.25-.324.343-.7.27-1.23-.08-.577-.535-1.138-1.196-1.332a1.385 1.385 0 0 0-.069-.019l-.17-.033a4.037 4.037 0 0 0-.101-.015l-.234-.028-.275-.023-.317-.019-.756-.025-.673-.007-.762.003-.85.013-1.269.035-1.234.043.067-.89c.256-3.412-.354-4.83-1.615-4.796ZM4.55 19.62v7.724c.004-.013.014-.01.045-.01l1.954-.001-.013-7.704H4.572c-.007 0-.011 0-.014-.002l-.007-.008Z" fill="#FAAD14" fill-rule="nonzero"></path></svg>