<svg width="1em" height="1em" viewBox="0 0 256 256" xmlns="http://www.w3.org/2000/svg" xmlns:xlink="http://www.w3.org/1999/xlink" class="larkui-icon larkui-icon-next-page icon-svg index-module_size_wVASz" data-name="NextPage" style="width: 16px; min-width: 16px; height: 16px;"><defs><path id="3313443569a" d="M0 0h255.7v255.7H0z"></path></defs><g fill="none" fill-rule="evenodd"><mask id="3313443569b" fill="#fff"><use xlink:href="#3313443569a"></use></mask><path d="M128 16c61.856 0 112 50.144 112 112s-50.144 112-112 112S16 189.856 16 128 66.144 16 128 16Zm0 19.467c-51.104 0-92.533 41.429-92.533 92.533S76.896 220.533 128 220.533s92.533-41.429 92.533-92.533S179.104 35.467 128 35.467ZM111.213 83.93c3.905-3.905 10.237-3.905 14.142 0l22.712 22.711.348.354c11.366 11.741 11.25 30.474-.348 42.073l-22.712 22.711-.215.21c-3.92 3.694-10.093 3.624-13.927-.21-3.905-3.905-3.905-10.237 0-14.142l22.712-22.711.209-.216c3.695-3.92 3.625-10.092-.21-13.927l-22.71-22.71-.21-.216c-3.695-3.92-3.625-10.093.21-13.927Z" fill="#8a8f8d" fill-rule="nonzero" mask="url(#3313443569b)"></path></g></svg>