<svg width="1em" height="1em" viewBox="0 0 256 256" xmlns="http://www.w3.org/2000/svg" class="larkui-icon larkui-icon-action-move icon-svg index-module_size_wVASz" data-name="ActionMove" style="width: 16px; min-width: 16px; height: 16px;"><g fill="currentColor" fill-rule="nonzero"><path d="M81.148 29H44c-12.15 0-22 9.85-22 22v155c0 12.15 9.85 22 22 22h168c12.15 0 22-9.85 22-22V80c0-12.15-9.85-22-22-22h-89.53a6 6 0 0 1-4.171-1.686l-21.86-21.132A22 22 0 0 0 81.149 29ZM44 49h37.148a2 2 0 0 1 1.39.562l21.86 21.132A26 26 0 0 0 122.47 78H212a2 2 0 0 1 2 2v126a2 2 0 0 1-2 2H44a2 2 0 0 1-2-2V51a2 2 0 0 1 2-2Z"></path><path d="M171.08 134.22c5.522 0 10 4.478 10 10 0 5.43-4.327 9.848-9.72 9.997l-.28.003H79.5c-5.523 0-10-4.477-10-10 0-5.429 4.327-9.847 9.72-9.996l.28-.004h91.58Z"></path><path d="M137.618 100.228c3.835-3.834 10.008-3.904 13.927-.21l.216.21 22.696 22.696c11.599 11.6 11.715 30.332.348 42.073l-.348.354-23.019 23.019c-3.905 3.905-10.237 3.905-14.142 0-3.834-3.834-3.904-10.007-.21-13.927l.21-.215 23.019-23.02c3.834-3.833 3.904-10.007.21-13.926l-.21-.215-22.697-22.697c-3.905-3.905-3.905-10.237 0-14.142Z"></path></g></svg>