<svg width="1em" height="1em" viewBox="0 0 24 23" xmlns="http://www.w3.org/2000/svg" class="larkui-icon larkui-icon-statistics2 icon-svg docInfoTabContent-module_statisticIcon_qcX19 index-module_size_wVASz" data-name="Statistics2"><g fill-rule="nonzero" fill="none"><path d="M12.732 15.07c.996 0 1.813.763 1.9 1.735l.008.173v4.197c0 .382-4.39.691-4.771.691a.692.692 0 0 1-.683-.58l-.009-.111v-4.197c0-.995.762-1.812 1.734-1.9l.174-.007h1.647ZM5.052 11.413c.996 0 1.813.762 1.9 1.734l.008.174v7.854c0 .382-.31.691-.691.691-.344 0-4.71-.25-4.763-.58l-.009-.111V13.32c0-.995.762-1.813 1.734-1.9l.174-.008h1.647ZM20.412 6.388c.996 0 1.813.762 1.9 1.734l.008.174v12.879c0 .382-.31.691-.691.691h-4.08a.692.692 0 0 1-.683-.58l-.009-.111V8.296c0-.995.762-1.812 1.734-1.9l.174-.008h1.647Z" fill="#FFF"></path><path d="M12.732 15.07c.996 0 1.813.763 1.9 1.735l.008.173v4.197a.692.692 0 0 1-1.374.112l-.009-.112v-4.197a.525.525 0 0 0-.43-.516l-.095-.008h-1.647a.525.525 0 0 0-.516.43l-.009.094v4.197a.692.692 0 0 1-1.374.112l-.009-.112v-4.197c0-.995.762-1.812 1.734-1.9l.174-.007h1.647ZM5.052 11.413c.996 0 1.813.762 1.9 1.734l.008.174v7.854a.692.692 0 0 1-1.374.112l-.009-.112V13.32a.525.525 0 0 0-.43-.516l-.095-.009H3.405a.525.525 0 0 0-.516.43l-.009.095v7.854a.692.692 0 0 1-1.374.112l-.009-.112V13.32c0-.995.762-1.813 1.734-1.9l.174-.008h1.647ZM20.412 6.388c.996 0 1.813.762 1.9 1.734l.008.174v12.879a.692.692 0 0 1-1.374.112l-.009-.112V8.296a.525.525 0 0 0-.43-.516l-.095-.008h-1.647a.525.525 0 0 0-.516.43l-.009.094v12.879a.692.692 0 0 1-1.374.112l-.009-.112V8.296c0-.995.762-1.812 1.734-1.9l.174-.008h1.647Z" fill="currentColor"></path><path d="M18.48 1.198a.6.6 0 0 1 .934.745l-.068.085-6.088 6.365a3.032 3.032 0 0 1-3.346.708L9.7 9.004 5.985 7.127a1.832 1.832 0 0 0-1.953.19l-.134.116-2.393 2.269a.6.6 0 0 1-.897-.79l.071-.08 2.393-2.27a3.032 3.032 0 0 1 3.25-.6l.204.094 3.715 1.877c.664.336 1.46.234 2.016-.242l.134-.127 6.088-6.366Z" fill="#00B96B"></path><path d="m17.22.463 2.592.004c.366 0 .669.267.726.617l.01.119.005 2.533a.737.737 0 0 1-1.465.122l-.01-.12-.004-1.798-1.857-.003a.738.738 0 0 1-.727-.619l-.01-.12c.001-.366.27-.67.62-.726l.12-.01Z" fill="#00B96B"></path><path d="m1.016 20.774 22.221.02a.692.692 0 0 1 .11 1.375l-.111.009-22.22-.021a.692.692 0 0 1-.112-1.374l.112-.01Z" fill="currentColor"></path></g></svg>