<svg width="1em" height="1em" viewBox="0 0 256 256" xmlns="http://www.w3.org/2000/svg" class="larkui-icon larkui-icon-nav-book1 icon-svg index-module_caption_bWso- index-module_caption-icon_Y3NyS index-module_inherit_TQ-oW index-module_size_wVASz" data-name="NavBook1" style="margin: 0px 8px 0px 0px; width: 16px; min-width: 16px; height: 16px;"><path d="M22 55.923c0-20.374 12.5-34.899 34.209-33.872l7.16.35c21.097 1.105 33.884 3.047 45.317 8.203 7.507 3.385 13.36 7.001 18.113 11.262 2.59-2.381 5.672-4.447 9.245-6.305.39-.202.777-.4 1.164-.592l.581-.286c3.791-1.844 7.755-3.345 14.813-5.762l2.27-.772c13.594-4.554 24.405-6.007 43.589-6.104l1.795-.006C223.044 22.023 234 35.21 234 55.923V183.3c0 18.725-15.066 33.883-33.736 33.883h-39.062c-3.543 0-8.873 1.224-13.46 3.215-4.311 1.872-7.11 4.07-7.58 5.172-1.905 4.485-5.647 8.022-10.87 8.4-1.65.12-3.262-.125-4.745-.685-1.727-.437-3.326-1.274-4.706-2.415-1.771-1.464-3.093-3.331-4.095-5.511-.187-.406-.807-1.134-1.89-1.994-1.366-1.086-3.208-2.167-5.351-3.123-4.274-1.905-9.196-3.058-12.579-3.058h-40.19C37.066 217.184 22 202.024 22 183.3ZM200.27 42.04h-.826c-18.05.05-26.96 1.246-38.765 5.258l-.528.18c-13.463 4.596-18.806 7.229-21.213 10.666l-.017 144.233c6.944-3.227 14.845-5.112 21.832-5.19l.45-.002h39.06c7.598 0 13.737-6.177 13.737-13.884l-.001-127.72c-.064-10.134-3.02-13.548-13.728-13.54Zm-145.358-.024C45.845 41.705 42 46.295 42 55.923V183.3c0 7.707 6.139 13.883 13.736 13.883h40.19c6.781 0 14.423 1.81 21.168 4.949l-.015-141.459c-3.533-4.588-8.243-8.004-16.066-11.588l-.548-.25c-8.458-3.813-19.447-5.482-38.13-6.46l-1.774-.092Z" fill="#8a8f8d" fill-rule="nonzero"></path></svg>