<svg width="1em" height="1em" viewBox="0 0 256 256" xmlns="http://www.w3.org/2000/svg" class="larkui-icon larkui-icon-sign-out icon-svg index-module_caption_bWso- index-module_caption-icon_Y3NyS index-module_inherit_TQ-oW index-module_size_wVASz" data-name="SignOut" style="margin: 0px 8px 0px 0px; width: 16px; min-width: 16px; height: 16px;"><path d="M169 28c5.523 0 10 4.477 10 10s-4.477 10-10 10H58c-5.43 0-9.848 4.327-9.996 9.72L48 58v140c0 5.43 4.327 9.848 9.72 9.996L58 208h110.498c5.522 0 9.998 4.476 9.998 9.998 0 5.522-4.476 9.998-9.998 9.998L58 228c-16.403 0-29.731-13.164-29.996-29.504L28 198V58c0-16.403 13.164-29.731 29.504-29.996L58 28h111Zm21.437 49.72.215.209 28.968 28.968c11.599 11.599 11.715 30.332.348 42.073l-.348.353-29.345 29.346c-3.905 3.905-10.237 3.905-14.142 0-3.835-3.834-3.904-10.008-.21-13.927l.21-.215 26.332-26.333L99.981 138c-5.523-.01-9.991-4.496-9.981-10.019.01-5.43 4.345-9.84 9.74-9.978l.279-.003 102.614.194-26.123-26.123c-3.905-3.905-3.905-10.237 0-14.142 3.834-3.834 10.008-3.904 13.927-.21Z" fill="#8a8f8d" fill-rule="nonzero"></path></svg>