<svg width="1em" height="1em" viewBox="0 0 256 256" xmlns="http://www.w3.org/2000/svg" class="larkui-icon larkui-icon-no-dynamic icon-svg index-module_caption_bWso- index-module_caption-icon_Y3NyS index-module_inherit_TQ-oW index-module_size_wVASz" data-name="NoDynamic" style="margin: 0px 8px 0px 0px; width: 18px; min-width: 18px; height: 18px;"><path d="m65.49 63.582 137.5 137.37a8.81 8.81 0 0 1 0 12.466 8.83 8.83 0 0 1-12.48 0L53.01 76.048a8.81 8.81 0 0 1 0-12.466 8.83 8.83 0 0 1 12.48 0Zm12.592 40.008 11.75 11.74-39.974 50.631 36.748-20.312a19.607 19.607 0 0 1 19.252.158l.355.209 36.136 21.78 18.878 18.86c-7.949 2.357-16.776 1.514-24.394-2.923l-.406-.24-38.732-23.345a3.107 3.107 0 0 0-3.107-.059L46.667 186.58c-6.733 3.722-15.207 1.28-18.929-5.451a13.929 13.929 0 0 1 1.258-15.37l48.857-61.882.229-.287ZM228.5 94.91a13.929 13.929 0 0 1-1.08 15.363l-48.986 63.653-11.77-11.76 39.93-51.885-38.914 22.056a19.607 19.607 0 0 1-18.875.253l-.368-.201-26.325-14.731-25.144-25.12a30.891 30.891 0 0 1 19.909 3.285l.399.22 39.219 21.947c.948.53 2.104.527 3.049-.008l49.97-28.321c6.693-3.793 15.193-1.443 18.986 5.25Z" fill="#8a8f8d" fill-rule="nonzero"></path></svg>