<svg width="1em" height="1em" viewBox="0 0 16 16" xmlns="http://www.w3.org/2000/svg" class="larkui-icon larkui-icon-comment-reply icon-svg index-module_caption_bWso- index-module_caption-icon_Y3NyS index-module_inherit_TQ-oW index-module_size_wVASz" data-name="CommentReply" style="margin: 0px 8px 0px 0px; width: 16px; min-width: 16px; height: 16px;"><path d="M8 1.063a6.937 6.937 0 1 1 0 13.874H1.937a.625.625 0 0 1-.526-.961l1.105-1.727-.017-.02a6.91 6.91 0 0 1-1.436-4.177V8A6.938 6.938 0 0 1 8 1.062Zm0 1.25a5.688 5.688 0 0 0-4.245 9.472c.187.21.211.517.06.753l-.735 1.15H8a5.688 5.688 0 0 0 5.687-5.594V8A5.688 5.688 0 0 0 8 2.312Zm.938 6.562a.625.625 0 1 1 0 1.25h-3.75a.625.625 0 1 1 0-1.25h3.75Zm1.874-3a.625.625 0 1 1 0 1.25H5.189a.625.625 0 1 1 0-1.25h5.625Z" fill="#8a8f8d" fill-rule="nonzero"></path></svg>